<svg width="207" height="74" viewBox="0 0 207 74" fill="none" xmlns="http://www.w3.org/2000/svg">
<rect width="21.878" height="21.878" fill="white"/>
<rect x="28.6094" width="21.878" height="21.878" fill="white"/>
<rect y="26.9268" width="21.878" height="21.878" fill="white"/>
<circle cx="39.5484" cy="37.8659" r="10.939" fill="white"/>
<path d="M131.393 13.9839V20.7448H130.536V19.58C130.171 20.0237 129.762 20.3565 129.31 20.5784C128.858 20.8003 128.363 20.9112 127.825 20.9112C126.867 20.9112 126.05 20.5661 125.372 19.8758C124.694 19.1814 124.355 18.3371 124.355 17.3428C124.355 16.369 124.696 15.537 125.378 14.8467C126.06 14.1565 126.882 13.8113 127.843 13.8113C128.402 13.8113 128.905 13.9284 129.353 14.1626C129.801 14.3968 130.195 14.7522 130.536 15.2288V13.9839H131.393ZM127.911 14.6495C127.43 14.6495 126.984 14.7687 126.573 15.007C126.163 15.2453 125.836 15.5801 125.594 16.0116C125.351 16.4389 125.23 16.8949 125.23 17.3798C125.23 17.8523 125.353 18.3063 125.6 18.7418C125.846 19.1773 126.175 19.5163 126.586 19.7587C126.997 20.0011 127.436 20.1223 127.905 20.1223C128.381 20.1223 128.833 20.0032 129.261 19.7649C129.688 19.5266 130.017 19.202 130.247 18.7911C130.477 18.3761 130.592 17.9118 130.592 17.3982C130.592 16.6176 130.333 15.9643 129.815 15.4384C129.302 14.9125 128.667 14.6495 127.911 14.6495ZM133.026 13.9839H133.889V15.2288C134.23 14.7522 134.624 14.3968 135.072 14.1626C135.524 13.9284 136.026 13.8113 136.576 13.8113C137.538 13.8113 138.359 14.1565 139.041 14.8467C139.723 15.537 140.064 16.369 140.064 17.3428C140.064 18.3371 139.725 19.1814 139.047 19.8758C138.37 20.5661 137.554 20.9112 136.601 20.9112C136.063 20.9112 135.567 20.8003 135.115 20.5784C134.664 20.3565 134.255 20.0237 133.889 19.58V23.21H133.026V13.9839ZM136.502 14.6495C135.754 14.6495 135.122 14.9125 134.604 15.4384C134.086 15.9643 133.827 16.6176 133.827 17.3982C133.827 17.9118 133.942 18.3761 134.173 18.7911C134.403 19.202 134.731 19.5266 135.159 19.7649C135.586 20.0032 136.038 20.1223 136.514 20.1223C136.983 20.1223 137.423 20.0011 137.833 19.7587C138.248 19.5163 138.577 19.1773 138.819 18.7418C139.066 18.3063 139.189 17.8523 139.189 17.3798C139.189 16.8949 139.068 16.4389 138.826 16.0116C138.583 15.5801 138.257 15.2453 137.846 15.007C137.439 14.7687 136.991 14.6495 136.502 14.6495ZM140.97 13.9839H142.012L143.799 16.4923L145.593 13.9839H146.634L144.317 17.1949L146.924 20.7448H145.87L143.799 17.9036L141.759 20.7448H140.724L143.282 17.1949L140.97 13.9839ZM149.161 13.9839V18.9821L154.122 13.9839H154.19V20.7448H153.315V15.7897L148.391 20.7448H148.286V13.9839H149.161ZM155.361 13.9839H159.805V14.7358H158.024V20.7448H157.142V14.7358H155.361V13.9839ZM166.677 18.5014L167.404 18.8897C167.17 19.3622 166.894 19.7423 166.578 20.0299C166.262 20.3175 165.906 20.5373 165.512 20.6893C165.117 20.8372 164.671 20.9112 164.174 20.9112C163.073 20.9112 162.212 20.5517 161.592 19.8326C160.972 19.1095 160.661 18.2939 160.661 17.3859C160.661 16.5272 160.924 15.763 161.45 15.0933C162.116 14.2386 163.009 13.8113 164.131 13.8113C165.277 13.8113 166.196 14.2489 166.886 15.1241C167.375 15.7404 167.622 16.5087 167.626 17.4291H161.555C161.571 18.2179 161.822 18.865 162.307 19.3704C162.792 19.8717 163.39 20.1223 164.1 20.1223C164.445 20.1223 164.78 20.0627 165.105 19.9436C165.43 19.8203 165.705 19.6601 165.931 19.4629C166.161 19.2656 166.409 18.9452 166.677 18.5014ZM166.677 16.6833C166.561 16.219 166.393 15.8493 166.171 15.574C165.949 15.2946 165.655 15.0707 165.29 14.9022C164.924 14.7296 164.54 14.6434 164.137 14.6434C163.476 14.6434 162.907 14.857 162.43 15.2843C162.085 15.5966 161.824 16.0629 161.647 16.6833H166.677ZM169.45 13.9839H170.325V16.8312L173.45 13.9839H174.664L171.237 17.0778L174.935 20.7448H173.702L170.596 17.6139L170.325 17.8605V20.7448H169.45V13.9839ZM175.071 13.9839H179.514V14.7358H177.733V20.7448H176.852V14.7358H175.071V13.9839ZM179.798 13.9839H180.716L183.039 19.1917L185.295 13.9839H186.226L182.189 23.21H181.271L182.571 20.2332L179.798 13.9839ZM187.569 13.9839H188.432V15.2288C188.773 14.7522 189.168 14.3968 189.615 14.1626C190.067 13.9284 190.569 13.8113 191.119 13.8113C192.081 13.8113 192.902 14.1565 193.584 14.8467C194.266 15.537 194.608 16.369 194.608 17.3428C194.608 18.3371 194.269 19.1814 193.591 19.8758C192.913 20.5661 192.097 20.9112 191.144 20.9112C190.606 20.9112 190.111 20.8003 189.659 20.5784C189.207 20.3565 188.798 20.0237 188.432 19.58V23.21H187.569V13.9839ZM191.045 14.6495C190.297 14.6495 189.665 14.9125 189.147 15.4384C188.629 15.9643 188.37 16.6176 188.37 17.3982C188.37 17.9118 188.486 18.3761 188.716 18.7911C188.946 19.202 189.274 19.5266 189.702 19.7649C190.129 20.0032 190.581 20.1223 191.058 20.1223C191.526 20.1223 191.966 20.0011 192.376 19.7587C192.791 19.5163 193.12 19.1773 193.363 18.7418C193.609 18.3063 193.732 17.8523 193.732 17.3798C193.732 16.8949 193.611 16.4389 193.369 16.0116C193.126 15.5801 192.8 15.2453 192.389 15.007C191.982 14.7687 191.534 14.6495 191.045 14.6495ZM203.008 13.9839V20.7448H202.151V19.58C201.785 20.0237 201.377 20.3565 200.925 20.5784C200.473 20.8003 199.978 20.9112 199.439 20.9112C198.482 20.9112 197.664 20.5661 196.986 19.8758C196.309 19.1814 195.97 18.3371 195.97 17.3428C195.97 16.369 196.311 15.537 196.993 14.8467C197.675 14.1565 198.496 13.8113 199.458 13.8113C200.017 13.8113 200.52 13.9284 200.968 14.1626C201.416 14.3968 201.81 14.7522 202.151 15.2288V13.9839H203.008ZM199.526 14.6495C199.045 14.6495 198.599 14.7687 198.188 15.007C197.777 15.2453 197.451 15.5801 197.208 16.0116C196.966 16.4389 196.845 16.8949 196.845 17.3798C196.845 17.8523 196.968 18.3063 197.214 18.7418C197.461 19.1773 197.79 19.5163 198.201 19.7587C198.611 20.0011 199.051 20.1223 199.519 20.1223C199.996 20.1223 200.448 20.0032 200.875 19.7649C201.303 19.5266 201.631 19.202 201.861 18.7911C202.092 18.3761 202.207 17.9118 202.207 17.3982C202.207 16.6176 201.948 15.9643 201.43 15.4384C200.916 14.9125 200.282 14.6495 199.526 14.6495Z" fill="white"/>
<path d="M5.91307 67.3782L2.95654 63.34V67.3782H0.865328V58.2922H2.95654V62.1862L5.69674 58.2922H8.07639L4.87468 62.7631L8.29273 67.3782H5.91307ZM16.0869 58.2922L13.2024 64.7822C12.9717 65.3014 12.7506 65.7388 12.539 66.0946C12.3275 66.4407 12.1064 66.7195 11.8756 66.9311C11.6449 67.1426 11.3901 67.2916 11.1112 67.3782C10.842 67.4743 10.5295 67.5224 10.1738 67.5224C9.92382 67.5224 9.70268 67.4983 9.51038 67.4503C9.40462 67.431 9.31328 67.407 9.23636 67.3782V65.5033C9.29405 65.5225 9.35655 65.5369 9.42385 65.5465C9.48154 65.5562 9.54884 65.5658 9.62576 65.5754C9.70268 65.5754 9.78921 65.5754 9.88536 65.5754C10.1065 65.5754 10.2892 65.5369 10.4334 65.46C10.5872 65.3831 10.717 65.2918 10.8228 65.186C10.9382 65.0706 11.0343 64.936 11.1112 64.7822L8.1547 58.2922H10.318L12.1208 62.3304L13.9236 58.2922H16.0869ZM18.4654 58.2922L20.1961 61.2488L21.9267 58.2922H24.2343L21.494 62.7631L24.3785 67.3782H22.0709L20.1961 64.2774L18.3212 67.3782H16.0136L18.8981 62.7631L16.1579 58.2922H18.4654ZM32.8887 58.2922V67.3782H30.7974V63.7726H27.3361V67.3782H25.2449V58.2922H27.3361V61.7535H30.7974V58.2922H32.8887ZM36.7162 58.2922V63.7005L40.3938 58.2922H42.2687V67.3782H40.1775V61.9699L36.4998 67.3782H34.6249V58.2922H36.7162ZM55.1168 58.2922H56.9916V67.3782H54.9004V62.8352L52.8092 67.3782H51.5112L49.42 62.8352V67.3782H47.3288V58.2922H49.2037L52.1602 64.7101L55.1168 58.2922ZM58.7229 58.2922H65.2128V60.3113H60.8141V61.7535H64.8523V63.7726H60.8141V65.3591H65.357V67.3782H58.7229V58.2922ZM70.687 61.6093C71.1582 61.6093 71.586 61.6862 71.9706 61.8401C72.3648 61.9939 72.7013 62.2006 72.9801 62.4602C73.259 62.7198 73.4753 63.0275 73.6291 63.3832C73.783 63.7294 73.8599 64.0995 73.8599 64.4937C73.8599 64.8879 73.783 65.2629 73.6291 65.6187C73.4753 65.9648 73.259 66.2677 72.9801 66.5273C72.7013 66.7869 72.3648 66.9936 71.9706 67.1474C71.586 67.3012 71.1582 67.3782 70.687 67.3782H66.7931V58.2922H73.1388V60.3113H68.8843V61.6093H70.687ZM70.6149 65.5754C70.9418 65.5754 71.2158 65.4696 71.437 65.2581C71.6581 65.037 71.7687 64.7822 71.7687 64.4937C71.7687 64.2053 71.6581 63.9553 71.437 63.7438C71.2158 63.5226 70.9418 63.4121 70.6149 63.4121H68.8843V65.5754H70.6149ZM75.159 58.2922H81.649V60.3113H77.2502V61.7535H81.2884V63.7726H77.2502V65.3591H81.7932V67.3782H75.159V58.2922ZM90.8008 58.2922V67.3782H88.7096V60.3113H86.2579L85.8973 64.638C85.8204 65.5417 85.5464 66.2388 85.0752 66.7292C84.6041 67.2099 83.9888 67.4503 83.2292 67.4503C83.1138 67.4503 83.0033 67.4455 82.8975 67.4358C82.7917 67.4358 82.7004 67.431 82.6235 67.4214C82.5273 67.4118 82.4408 67.3974 82.3639 67.3782V65.5754H82.6523C82.9792 65.5754 83.2532 65.4552 83.4744 65.2148C83.7051 64.9745 83.8397 64.638 83.8782 64.2053L84.383 58.2922H90.8008ZM92.5247 67.3782V58.2922H94.6159V61.1766H96.1303C96.6014 61.1766 97.034 61.2584 97.4283 61.4218C97.8225 61.5757 98.1638 61.7968 98.4522 62.0852C98.7407 62.3641 98.9666 62.691 99.1301 63.0659C99.2935 63.4409 99.3752 63.8447 99.3752 64.2774C99.3752 64.7101 99.2935 65.1139 99.1301 65.4889C98.9666 65.8638 98.7407 66.1955 98.4522 66.484C98.1638 66.7628 97.8225 66.984 97.4283 67.1474C97.034 67.3012 96.6014 67.3782 96.1303 67.3782H92.5247ZM94.6159 63.1957V65.3591H96.1303C96.4572 65.3591 96.7312 65.2533 96.9523 65.0418C97.1735 64.8206 97.284 64.5658 97.284 64.2774C97.284 63.989 97.1735 63.739 96.9523 63.5274C96.7312 63.3063 96.4572 63.1957 96.1303 63.1957H94.6159ZM107.887 65.4312C108.463 65.4312 108.915 65.2966 109.242 65.0274C109.579 64.7485 109.8 64.4264 109.906 64.0611L112.069 64.2053C111.963 64.638 111.79 65.0514 111.55 65.4456C111.309 65.8398 111.011 66.1859 110.656 66.484C110.3 66.7724 109.886 67.008 109.415 67.1907C108.954 67.3637 108.444 67.4503 107.887 67.4503C107.271 67.4503 106.69 67.3349 106.141 67.1041C105.603 66.8638 105.132 66.5369 104.728 66.1234C104.324 65.7004 104.002 65.21 103.762 64.6524C103.531 64.0947 103.416 63.489 103.416 62.8352C103.416 62.191 103.531 61.5901 103.762 61.0324C104.002 60.4652 104.324 59.9748 104.728 59.5614C105.132 59.1383 105.603 58.8114 106.141 58.5807C106.69 58.3403 107.271 58.2201 107.887 58.2201C108.425 58.2201 108.92 58.3114 109.372 58.4941C109.834 58.6672 110.237 58.9028 110.583 59.2008C110.939 59.4893 111.237 59.8306 111.478 60.2248C111.718 60.619 111.891 61.0324 111.997 61.4651L109.834 61.6093C109.776 61.4266 109.694 61.2536 109.588 61.0901C109.483 60.9267 109.348 60.7824 109.185 60.6574C109.021 60.5325 108.829 60.4315 108.608 60.3546C108.396 60.2777 108.156 60.2392 107.887 60.2392C107.56 60.2392 107.252 60.3065 106.964 60.4411C106.675 60.5661 106.42 60.744 106.199 60.9747C105.988 61.2055 105.819 61.4795 105.694 61.7968C105.569 62.1141 105.507 62.4602 105.507 62.8352C105.507 63.2102 105.569 63.5563 105.694 63.8736C105.819 64.1909 105.988 64.4649 106.199 64.6956C106.42 64.9264 106.675 65.1091 106.964 65.2437C107.252 65.3687 107.56 65.4312 107.887 65.4312ZM118.853 62.5467C119.122 62.6717 119.363 62.8352 119.574 63.0371C119.757 63.2102 119.92 63.4313 120.064 63.7005C120.218 63.9697 120.295 64.3062 120.295 64.7101C120.295 65.0754 120.223 65.4216 120.079 65.7485C119.935 66.0657 119.728 66.3446 119.459 66.5849C119.199 66.8253 118.887 67.0176 118.521 67.1618C118.166 67.306 117.771 67.3782 117.339 67.3782H113.228V58.2922H117.122C117.536 58.2922 117.916 58.3595 118.262 58.4941C118.608 58.6287 118.901 58.8114 119.141 59.0422C119.391 59.2729 119.584 59.5421 119.718 59.8498C119.863 60.1479 119.935 60.47 119.935 60.8161C119.935 61.1238 119.877 61.3882 119.762 61.6093C119.646 61.8304 119.521 62.0083 119.387 62.1429C119.223 62.3064 119.045 62.441 118.853 62.5467ZM115.32 61.8977H116.906C117.194 61.8977 117.435 61.8064 117.627 61.6237C117.819 61.4314 117.916 61.2103 117.916 60.9603C117.916 60.7103 117.819 60.494 117.627 60.3113C117.435 60.119 117.194 60.0229 116.906 60.0229H115.32V61.8977ZM117.122 65.6475C117.449 65.6475 117.723 65.5417 117.944 65.3302C118.166 65.1091 118.276 64.8543 118.276 64.5658C118.276 64.2774 118.166 64.0274 117.944 63.8159C117.723 63.5948 117.449 63.4842 117.122 63.4842H115.32V65.6475H117.122ZM121.594 58.2922H128.084V60.3113H123.686V61.7535H127.724V63.7726H123.686V65.3591H128.229V67.3782H121.594V58.2922ZM133.631 67.3782H131.539V60.3113H128.943V58.2922H136.227V60.3113H133.631V67.3782ZM142.657 58.2922V63.7005L146.334 58.2922H148.209V67.3782H146.118V61.9699L142.441 67.3782H140.566V58.2922H142.657ZM157.589 58.2922V67.3782H155.498V63.7726H152.037V67.3782H149.946V58.2922H152.037V61.7535H155.498V58.2922H157.589ZM163.292 67.3782H161.201V60.3113H158.605V58.2922H165.888V60.3113H163.292V67.3782ZM166.903 58.2922H173.393V60.3113H168.994V61.7535H173.032V63.7726H168.994V65.3591H173.537V67.3782H166.903V58.2922ZM178.507 58.2922C178.978 58.2922 179.41 58.3739 179.805 58.5374C180.199 58.6912 180.54 58.9124 180.829 59.2008C181.117 59.4796 181.343 59.8065 181.506 60.1815C181.67 60.5565 181.752 60.9603 181.752 61.393C181.752 61.8256 181.67 62.2295 181.506 62.6044C181.343 62.9794 181.117 63.3111 180.829 63.5996C180.54 63.8784 180.199 64.0995 179.805 64.263C179.41 64.4168 178.978 64.4937 178.507 64.4937H177.064V67.3782H174.973V58.2922H178.507ZM178.507 62.4746C178.833 62.4746 179.107 62.3689 179.329 62.1573C179.55 61.9362 179.66 61.6814 179.66 61.393C179.66 61.1045 179.55 60.8545 179.329 60.643C179.107 60.4219 178.833 60.3113 178.507 60.3113H177.064V62.4746H178.507ZM183.043 67.3782V58.2922H185.135V61.1766H186.649C187.12 61.1766 187.553 61.2584 187.947 61.4218C188.341 61.5757 188.682 61.7968 188.971 62.0852C189.259 62.3641 189.485 62.691 189.649 63.0659C189.812 63.4409 189.894 63.8447 189.894 64.2774C189.894 64.7101 189.812 65.1139 189.649 65.4889C189.485 65.8638 189.259 66.1955 188.971 66.484C188.682 66.7628 188.341 66.984 187.947 67.1474C187.553 67.3012 187.12 67.3782 186.649 67.3782H183.043ZM185.135 63.1957V65.3591H186.649C186.976 65.3591 187.25 65.2533 187.471 65.0418C187.692 64.8206 187.803 64.5658 187.803 64.2774C187.803 63.989 187.692 63.739 187.471 63.5274C187.25 63.3063 186.976 63.1957 186.649 63.1957H185.135ZM191.043 58.2922H197.533V60.3113H193.134V61.7535H197.172V63.7726H193.134V65.3591H197.677V67.3782H191.043V58.2922ZM202.647 58.2922C203.118 58.2922 203.55 58.3739 203.945 58.5374C204.339 58.6912 204.68 58.9124 204.969 59.2008C205.257 59.4796 205.483 59.8065 205.647 60.1815C205.81 60.5565 205.892 60.9603 205.892 61.393C205.892 61.8256 205.81 62.2295 205.647 62.6044C205.483 62.9794 205.257 63.3111 204.969 63.5996C204.68 63.8784 204.339 64.0995 203.945 64.263C203.55 64.4168 203.118 64.4937 202.647 64.4937H201.204V67.3782H199.113V58.2922H202.647ZM202.647 62.4746C202.974 62.4746 203.248 62.3689 203.469 62.1573C203.69 61.9362 203.8 61.6814 203.8 61.393C203.8 61.1045 203.69 60.8545 203.469 60.643C203.248 60.4219 202.974 60.3113 202.647 60.3113H201.204V62.4746H202.647Z" fill="white"/>
<path d="M119.488 14.7257V46.7013" stroke="white" stroke-width="2.52439"/>
<path d="M62.2686 45.8607V36.6046C62.2686 33.1191 65.0941 30.2936 68.5795 30.2936V30.2936C72.065 30.2936 74.8905 33.1191 74.8905 36.6046V45.8607" stroke="white" stroke-width="2.52439"/>
<path d="M74.8906 45.8601V36.604C74.8906 33.1185 77.7161 30.293 81.2016 30.293V30.293C84.6871 30.293 87.5126 33.1185 87.5126 36.604V45.8601" stroke="white" stroke-width="2.52439"/>
<circle cx="129.165" cy="36.6037" r="9.67683" stroke="white" stroke-width="2.52439"/>
<path d="M112.756 41.2131C111.342 44.2081 108.294 46.2804 104.762 46.2804C99.8825 46.2804 95.9268 42.3247 95.9268 37.445C95.9268 36.5678 96.0546 35.7205 96.2926 34.9206M96.2926 34.9206C97.3788 31.271 100.76 28.6097 104.762 28.6097C108.765 28.6097 112.145 31.271 113.232 34.9206H96.2926Z" stroke="white" stroke-width="2.52439"/>
<path d="M159.036 41.2131C157.622 44.2081 154.574 46.2804 151.042 46.2804C146.163 46.2804 142.207 42.3247 142.207 37.445C142.207 36.5678 142.335 35.7205 142.573 34.9206M142.573 34.9206C143.659 31.271 147.04 28.6097 151.042 28.6097C155.045 28.6097 158.426 31.271 159.512 34.9206H142.573Z" stroke="white" stroke-width="2.52439"/>
<path d="M162.823 53.4329C162.823 53.4329 165.768 51.75 165.768 47.5427C165.768 44.1136 165.768 39.3744 165.768 35.5496C165.768 31.948 168.688 29.0305 172.29 29.0305V29.0305C175.891 29.0305 178.811 31.9502 178.811 35.5518V46.2805" stroke="white" stroke-width="2.52439"/>
<path d="M187.646 27.7685V38.4971C187.646 42.3311 190.755 45.4392 194.589 45.4392V45.4392C198.423 45.4392 201.531 42.3311 201.531 38.4971V27.7685V46.2807" stroke="white" stroke-width="2.52439"/>
</svg>
