<svg width="144" height="51" viewBox="0 0 144 51" fill="none" xmlns="http://www.w3.org/2000/svg">
<rect width="15.21" height="15.21" fill="black"/>
<rect x="19.8896" width="15.21" height="15.21" fill="black"/>
<rect y="18.7202" width="15.21" height="15.21" fill="black"/>
<circle cx="27.4947" cy="26.3252" r="7.60501" fill="black"/>
<path d="M91.3467 9.37915V14.0794H90.7511V13.2696C90.4969 13.5781 90.2127 13.8095 89.8985 13.9637C89.5842 14.118 89.24 14.1951 88.8658 14.1951C88.2003 14.1951 87.6319 13.9552 87.1605 13.4753C86.6892 12.9926 86.4536 12.4056 86.4536 11.7143C86.4536 11.0373 86.6907 10.4589 87.1648 9.979C87.639 9.49912 88.2103 9.25918 88.8787 9.25918C89.2672 9.25918 89.6171 9.34059 89.9284 9.5034C90.2398 9.66622 90.514 9.9133 90.7511 10.2447V9.37915H91.3467ZM88.9258 9.84189C88.5916 9.84189 88.2817 9.92473 87.9961 10.0904C87.7104 10.2561 87.4833 10.4889 87.3148 10.7888C87.1463 11.0859 87.062 11.4029 87.062 11.74C87.062 12.0685 87.1477 12.3841 87.3191 12.6869C87.4905 12.9897 87.719 13.2254 88.0046 13.3939C88.2903 13.5624 88.5959 13.6467 88.9215 13.6467C89.2529 13.6467 89.5671 13.5638 89.8642 13.3982C90.1612 13.2325 90.3898 13.0068 90.5497 12.7212C90.7097 12.4327 90.7897 12.1099 90.7897 11.7529C90.7897 11.2101 90.6097 10.756 90.2498 10.3903C89.8927 10.0247 89.4514 9.84189 88.9258 9.84189ZM92.4821 9.37915H93.082V10.2447C93.319 9.9133 93.5933 9.66622 93.9046 9.5034C94.2188 9.34059 94.5673 9.25918 94.9501 9.25918C95.6185 9.25918 96.1898 9.49912 96.6639 9.979C97.1381 10.4589 97.3752 11.0373 97.3752 11.7143C97.3752 12.4056 97.1395 12.9926 96.6682 13.4753C96.1969 13.9552 95.6299 14.1951 94.9672 14.1951C94.593 14.1951 94.2488 14.118 93.9346 13.9637C93.6204 13.8095 93.3362 13.5781 93.082 13.2696V15.7933H92.4821V9.37915ZM94.8987 9.84189C94.3788 9.84189 93.9389 10.0247 93.579 10.3903C93.2191 10.756 93.0391 11.2101 93.0391 11.7529C93.0391 12.1099 93.1191 12.4327 93.2791 12.7212C93.439 13.0068 93.6675 13.2325 93.9646 13.3982C94.2617 13.5638 94.5759 13.6467 94.9072 13.6467C95.2329 13.6467 95.5385 13.5624 95.8242 13.3939C96.1127 13.2254 96.3412 12.9897 96.5097 12.6869C96.6811 12.3841 96.7668 12.0685 96.7668 11.74C96.7668 11.4029 96.6825 11.0859 96.514 10.7888C96.3455 10.4889 96.1184 10.2561 95.8327 10.0904C95.5499 9.92473 95.2386 9.84189 94.8987 9.84189ZM98.005 9.37915H98.7292L99.9717 11.123L101.219 9.37915H101.943L100.332 11.6115L102.144 14.0794H101.411L99.9717 12.1042L98.5535 14.0794H97.8337L99.6118 11.6115L98.005 9.37915ZM103.699 9.37915V12.854L107.149 9.37915H107.196V14.0794H106.587V10.6346L103.164 14.0794H103.091V9.37915H103.699ZM108.01 9.37915H111.099V9.90188H109.861V14.0794H109.248V9.90188H108.01V9.37915ZM115.876 12.5198L116.382 12.7897C116.219 13.1182 116.028 13.3825 115.808 13.5824C115.588 13.7824 115.341 13.9352 115.067 14.0409C114.792 14.1437 114.482 14.1951 114.137 14.1951C113.371 14.1951 112.773 13.9452 112.342 13.4453C111.91 12.9426 111.695 12.3756 111.695 11.7443C111.695 11.1473 111.877 10.616 112.243 10.1504C112.706 9.55625 113.327 9.25918 114.107 9.25918C114.904 9.25918 115.542 9.56339 116.022 10.1718C116.362 10.6003 116.533 11.1344 116.536 11.7743H112.316C112.327 12.3227 112.502 12.7726 112.839 13.1239C113.176 13.4724 113.591 13.6467 114.085 13.6467C114.325 13.6467 114.558 13.6053 114.784 13.5224C115.009 13.4367 115.201 13.3253 115.358 13.1882C115.518 13.0511 115.691 12.8283 115.876 12.5198ZM115.876 11.2558C115.796 10.9331 115.679 10.676 115.525 10.4846C115.371 10.2904 115.167 10.1347 114.912 10.0176C114.658 9.89759 114.391 9.83761 114.111 9.83761C113.651 9.83761 113.256 9.98614 112.924 10.2832C112.684 10.5003 112.503 10.8245 112.38 11.2558H115.876ZM117.805 9.37915H118.413V11.3587L120.585 9.37915H121.429L119.047 11.5301L121.618 14.0794H120.761L118.601 11.9028L118.413 12.0742V14.0794H117.805V9.37915ZM121.712 9.37915H124.801V9.90188H123.563V14.0794H122.95V9.90188H121.712V9.37915ZM124.998 9.37915H125.637L127.252 12.9997L128.82 9.37915H129.467L126.661 15.7933H126.023L126.927 13.7238L124.998 9.37915ZM130.401 9.37915H131.001V10.2447C131.238 9.9133 131.513 9.66622 131.824 9.5034C132.138 9.34059 132.487 9.25918 132.869 9.25918C133.538 9.25918 134.109 9.49912 134.583 9.979C135.057 10.4589 135.295 11.0373 135.295 11.7143C135.295 12.4056 135.059 12.9926 134.588 13.4753C134.116 13.9552 133.549 14.1951 132.887 14.1951C132.512 14.1951 132.168 14.118 131.854 13.9637C131.54 13.8095 131.256 13.5781 131.001 13.2696V15.7933H130.401V9.37915ZM132.818 9.84189C132.298 9.84189 131.858 10.0247 131.498 10.3903C131.138 10.756 130.958 11.2101 130.958 11.7529C130.958 12.1099 131.038 12.4327 131.198 12.7212C131.358 13.0068 131.587 13.2325 131.884 13.3982C132.181 13.5638 132.495 13.6467 132.827 13.6467C133.152 13.6467 133.458 13.5624 133.743 13.3939C134.032 13.2254 134.261 12.9897 134.429 12.6869C134.6 12.3841 134.686 12.0685 134.686 11.74C134.686 11.4029 134.602 11.0859 134.433 10.7888C134.265 10.4889 134.038 10.2561 133.752 10.0904C133.469 9.92473 133.158 9.84189 132.818 9.84189ZM141.135 9.37915V14.0794H140.539V13.2696C140.285 13.5781 140.001 13.8095 139.686 13.9637C139.372 14.118 139.028 14.1951 138.654 14.1951C137.988 14.1951 137.42 13.9552 136.948 13.4753C136.477 12.9926 136.241 12.4056 136.241 11.7143C136.241 11.0373 136.479 10.4589 136.953 9.979C137.427 9.49912 137.998 9.25918 138.667 9.25918C139.055 9.25918 139.405 9.34059 139.716 9.5034C140.028 9.66622 140.302 9.9133 140.539 10.2447V9.37915H141.135ZM138.714 9.84189C138.379 9.84189 138.07 9.92473 137.784 10.0904C137.498 10.2561 137.271 10.4889 137.103 10.7888C136.934 11.0859 136.85 11.4029 136.85 11.74C136.85 12.0685 136.936 12.3841 137.107 12.6869C137.278 12.9897 137.507 13.2254 137.793 13.3939C138.078 13.5624 138.384 13.6467 138.709 13.6467C139.041 13.6467 139.355 13.5638 139.652 13.3982C139.949 13.2325 140.178 13.0068 140.338 12.7212C140.498 12.4327 140.578 12.1099 140.578 11.7529C140.578 11.2101 140.398 10.756 140.038 10.3903C139.681 10.0247 139.239 9.84189 138.714 9.84189Z" fill="black"/>
<path d="M4.11087 47.1948L2.05544 44.3874V47.1948H0.601591V40.8781H2.05544V43.5853L3.96048 40.8781H5.61485L3.38896 43.9863L5.76525 47.1948H4.11087ZM11.1839 40.8781L9.17858 45.3901C9.01815 45.751 8.86441 46.0551 8.71736 46.3025C8.5703 46.5431 8.41656 46.7369 8.25614 46.884C8.09571 47.0311 7.91858 47.1347 7.72473 47.1948C7.53757 47.2617 7.32033 47.2951 7.07301 47.2951C6.89921 47.2951 6.74547 47.2784 6.61179 47.245C6.53826 47.2316 6.47476 47.2149 6.42128 47.1948V45.8914C6.46139 45.9047 6.50484 45.9148 6.55163 45.9215C6.59173 45.9281 6.63852 45.9348 6.692 45.9415C6.74547 45.9415 6.80563 45.9415 6.87248 45.9415C7.02622 45.9415 7.15322 45.9148 7.25348 45.8613C7.36043 45.8078 7.45067 45.7443 7.5242 45.6708C7.60441 45.5906 7.67126 45.497 7.72473 45.3901L5.66929 40.8781H7.17327L8.42659 43.6855L9.6799 40.8781H11.1839ZM12.8375 40.8781L14.0407 42.9336L15.2438 40.8781H16.8481L14.943 43.9863L16.9483 47.1948H15.3441L14.0407 45.0391L12.7372 47.1948H11.133L13.1383 43.9863L11.2332 40.8781H12.8375ZM22.8648 40.8781V47.1948H21.4109V44.6882H19.0046V47.1948H17.5507V40.8781H19.0046V43.2845H21.4109V40.8781H22.8648ZM25.5257 40.8781V44.6381L28.0825 40.8781H29.3859V47.1948H27.9321V43.4349L25.3753 47.1948H24.0719V40.8781H25.5257ZM38.3182 40.8781H39.6216V47.1948H38.1678V44.0365L36.7139 47.1948H35.8115L34.3577 44.0365V47.1948H32.9038V40.8781H34.2073L36.2627 45.3399L38.3182 40.8781ZM40.8252 40.8781H45.3371V42.2818H42.279V43.2845H45.0865V44.6882H42.279V45.7911H45.4374V47.1948H40.8252V40.8781ZM49.1429 43.1842C49.4704 43.1842 49.7679 43.2377 50.0352 43.3446C50.3093 43.4516 50.5433 43.5953 50.7371 43.7758C50.9309 43.9563 51.0813 44.1702 51.1883 44.4175C51.2952 44.6581 51.3487 44.9155 51.3487 45.1895C51.3487 45.4636 51.2952 45.7243 51.1883 45.9716C51.0813 46.2122 50.9309 46.4228 50.7371 46.6033C50.5433 46.7837 50.3093 46.9275 50.0352 47.0344C49.7679 47.1413 49.4704 47.1948 49.1429 47.1948H46.4357V40.8781H50.8474V42.2818H47.8896V43.1842H49.1429ZM49.0928 45.9415C49.32 45.9415 49.5105 45.868 49.6643 45.7209C49.818 45.5672 49.8949 45.3901 49.8949 45.1895C49.8949 44.989 49.818 44.8152 49.6643 44.6681C49.5105 44.5144 49.32 44.4375 49.0928 44.4375H47.8896V45.9415H49.0928ZM52.2519 40.8781H56.7638V42.2818H53.7057V43.2845H56.5132V44.6882H53.7057V45.7911H56.8641V47.1948H52.2519V40.8781ZM63.1264 40.8781V47.1948H61.6725V42.2818H59.968L59.7173 45.2898C59.6639 45.9181 59.4734 46.4027 59.1458 46.7436C58.8183 47.0778 58.3905 47.245 57.8624 47.245C57.7822 47.245 57.7054 47.2416 57.6318 47.2349C57.5583 47.2349 57.4948 47.2316 57.4413 47.2249C57.3745 47.2182 57.3143 47.2082 57.2608 47.1948V45.9415H57.4614C57.6886 45.9415 57.8791 45.858 58.0329 45.6908C58.1933 45.5237 58.2869 45.2898 58.3136 44.989L58.6646 40.8781H63.1264ZM64.3248 47.1948V40.8781H65.7787V42.8834H66.8315C67.159 42.8834 67.4598 42.9402 67.7339 43.0539C68.0079 43.1608 68.2452 43.3146 68.4457 43.5151C68.6463 43.7089 68.8034 43.9362 68.917 44.1969C69.0306 44.4576 69.0874 44.7383 69.0874 45.0391C69.0874 45.3399 69.0306 45.6207 68.917 45.8813C68.8034 46.142 68.6463 46.3726 68.4457 46.5732C68.2452 46.767 68.0079 46.9208 67.7339 47.0344C67.4598 47.1413 67.159 47.1948 66.8315 47.1948H64.3248ZM65.7787 44.2871V45.7911H66.8315C67.0587 45.7911 67.2492 45.7176 67.403 45.5705C67.5567 45.4168 67.6336 45.2397 67.6336 45.0391C67.6336 44.8386 67.5567 44.6648 67.403 44.5177C67.2492 44.364 67.0587 44.2871 66.8315 44.2871H65.7787ZM75.0047 45.8412C75.4057 45.8412 75.7199 45.7477 75.9471 45.5605C76.1811 45.3667 76.3348 45.1427 76.4084 44.8887L77.9123 44.989C77.8388 45.2898 77.7185 45.5772 77.5514 45.8513C77.3843 46.1253 77.1771 46.366 76.9297 46.5732C76.6824 46.7737 76.395 46.9375 76.0675 47.0645C75.7466 47.1848 75.3923 47.245 75.0047 47.245C74.5769 47.245 74.1725 47.1647 73.7914 47.0043C73.4171 46.8372 73.0896 46.6099 72.8088 46.3225C72.5281 46.0284 72.3042 45.6875 72.1371 45.2998C71.9766 44.9121 71.8964 44.491 71.8964 44.0365C71.8964 43.5886 71.9766 43.1708 72.1371 42.7832C72.3042 42.3888 72.5281 42.0479 72.8088 41.7604C73.0896 41.4663 73.4171 41.2391 73.7914 41.0786C74.1725 40.9115 74.5769 40.828 75.0047 40.828C75.379 40.828 75.7232 40.8915 76.0374 41.0185C76.3582 41.1388 76.639 41.3026 76.8796 41.5098C77.1269 41.7103 77.3341 41.9476 77.5013 42.2217C77.6684 42.4957 77.7887 42.7832 77.8622 43.0839L76.3582 43.1842C76.3181 43.0572 76.2613 42.9369 76.1878 42.8233C76.1143 42.7096 76.0207 42.6094 75.907 42.5225C75.7934 42.4356 75.6597 42.3654 75.506 42.3119C75.3589 42.2584 75.1918 42.2317 75.0047 42.2317C74.7774 42.2317 74.5635 42.2785 74.363 42.3721C74.1624 42.459 73.9853 42.5826 73.8315 42.743C73.6845 42.9035 73.5675 43.094 73.4806 43.3146C73.3937 43.5351 73.3503 43.7758 73.3503 44.0365C73.3503 44.2972 73.3937 44.5378 73.4806 44.7584C73.5675 44.979 73.6845 45.1695 73.8315 45.3299C73.9853 45.4903 74.1624 45.6173 74.363 45.7109C74.5635 45.7978 74.7774 45.8412 75.0047 45.8412ZM82.6287 43.8359C82.8159 43.9228 82.983 44.0365 83.1301 44.1768C83.2571 44.2972 83.3707 44.4509 83.471 44.6381C83.5779 44.8252 83.6314 45.0592 83.6314 45.3399C83.6314 45.5939 83.5812 45.8346 83.481 46.0618C83.3807 46.2824 83.237 46.4763 83.0498 46.6434C82.8694 46.8105 82.6521 46.9442 82.3981 47.0444C82.1508 47.1447 81.8767 47.1948 81.5759 47.1948H78.7184V40.8781H81.4255C81.713 40.8781 81.977 40.9249 82.2176 41.0185C82.4583 41.1121 82.6621 41.2391 82.8293 41.3995C83.003 41.5599 83.1367 41.7471 83.2303 41.961C83.3306 42.1682 83.3807 42.3921 83.3807 42.6328C83.3807 42.8467 83.3406 43.0305 83.2604 43.1842C83.1802 43.338 83.0933 43.4616 82.9997 43.5552C82.8861 43.6688 82.7624 43.7624 82.6287 43.8359ZM80.1722 43.3847H81.2751C81.4757 43.3847 81.6428 43.3212 81.7765 43.1942C81.9102 43.0606 81.977 42.9068 81.977 42.733C81.977 42.5592 81.9102 42.4088 81.7765 42.2818C81.6428 42.1481 81.4757 42.0813 81.2751 42.0813H80.1722V43.3847ZM81.4255 45.9916C81.6528 45.9916 81.8433 45.9181 81.9971 45.7711C82.1508 45.6173 82.2277 45.4402 82.2277 45.2397C82.2277 45.0391 82.1508 44.8653 81.9971 44.7183C81.8433 44.5645 81.6528 44.4877 81.4255 44.4877H80.1722V45.9916H81.4255ZM84.5346 40.8781H89.0465V42.2818H85.9884V43.2845H88.7958V44.6882H85.9884V45.7911H89.1468V47.1948H84.5346V40.8781ZM92.9024 47.1948H91.4485V42.2818H89.6438V40.8781H94.7072V42.2818H92.9024V47.1948ZM99.1776 40.8781V44.6381L101.734 40.8781H103.038V47.1948H101.584V43.4349L99.0272 47.1948H97.7237V40.8781H99.1776ZM109.559 40.8781V47.1948H108.105V44.6882H105.699V47.1948H104.245V40.8781H105.699V43.2845H108.105V40.8781H109.559ZM113.523 47.1948H112.069V42.2818H110.265V40.8781H115.328V42.2818H113.523V47.1948ZM116.034 40.8781H120.546V42.2818H117.488V43.2845H120.295V44.6882H117.488V45.7911H120.646V47.1948H116.034V40.8781ZM124.101 40.8781C124.428 40.8781 124.729 40.9349 125.003 41.0486C125.277 41.1555 125.515 41.3093 125.715 41.5098C125.916 41.7036 126.073 41.9309 126.186 42.1916C126.3 42.4523 126.357 42.733 126.357 43.0338C126.357 43.3346 126.3 43.6154 126.186 43.876C126.073 44.1367 125.916 44.3673 125.715 44.5679C125.515 44.7617 125.277 44.9155 125.003 45.0291C124.729 45.136 124.428 45.1895 124.101 45.1895H123.098V47.1948H121.644V40.8781H124.101ZM124.101 43.7858C124.328 43.7858 124.519 43.7123 124.672 43.5652C124.826 43.4115 124.903 43.2343 124.903 43.0338C124.903 42.8333 124.826 42.6595 124.672 42.5124C124.519 42.3587 124.328 42.2818 124.101 42.2818H123.098V43.7858H124.101ZM127.255 47.1948V40.8781H128.709V42.8834H129.762C130.089 42.8834 130.39 42.9402 130.664 43.0539C130.938 43.1608 131.175 43.3146 131.376 43.5151C131.576 43.7089 131.733 43.9362 131.847 44.1969C131.961 44.4576 132.018 44.7383 132.018 45.0391C132.018 45.3399 131.961 45.6207 131.847 45.8813C131.733 46.142 131.576 46.3726 131.376 46.5732C131.175 46.767 130.938 46.9208 130.664 47.0344C130.39 47.1413 130.089 47.1948 129.762 47.1948H127.255ZM128.709 44.2871V45.7911H129.762C129.989 45.7911 130.179 45.7176 130.333 45.5705C130.487 45.4168 130.564 45.2397 130.564 45.0391C130.564 44.8386 130.487 44.6648 130.333 44.5177C130.179 44.364 129.989 44.2871 129.762 44.2871H128.709ZM132.817 40.8781H137.329V42.2818H134.27V43.2845H137.078V44.6882H134.27V45.7911H137.429V47.1948H132.817V40.8781ZM140.884 40.8781C141.211 40.8781 141.512 40.9349 141.786 41.0486C142.06 41.1555 142.297 41.3093 142.498 41.5098C142.698 41.7036 142.855 41.9309 142.969 42.1916C143.083 42.4523 143.14 42.733 143.14 43.0338C143.14 43.3346 143.083 43.6154 142.969 43.876C142.855 44.1367 142.698 44.3673 142.498 44.5679C142.297 44.7617 142.06 44.9155 141.786 45.0291C141.512 45.136 141.211 45.1895 140.884 45.1895H139.881V47.1948H138.427V40.8781H140.884ZM140.884 43.7858C141.111 43.7858 141.301 43.7123 141.455 43.5652C141.609 43.4115 141.686 43.2343 141.686 43.0338C141.686 42.8333 141.609 42.6595 141.455 42.5124C141.301 42.3587 141.111 42.2818 140.884 42.2818H139.881V43.7858H140.884Z" fill="black"/>
<path d="M83.0703 10.2373V32.4673" stroke="black" stroke-width="1.755"/>
<path d="M43.29 31.8826V25.4476C43.29 23.0244 45.2544 21.0601 47.6775 21.0601V21.0601C50.1007 21.0601 52.065 23.0244 52.065 25.4476V31.8826" stroke="black" stroke-width="1.755"/>
<path d="M52.0654 31.8826V25.4476C52.0654 23.0244 54.0298 21.0601 56.4529 21.0601V21.0601C58.8761 21.0601 60.8404 23.0244 60.8404 25.4476V31.8826" stroke="black" stroke-width="1.755"/>
<circle cx="89.7978" cy="25.4477" r="6.7275" stroke="black" stroke-width="1.755"/>
<path d="M78.7211 24.2776C77.9659 21.7404 75.6155 19.8901 72.8329 19.8901C70.0504 19.8901 67.6999 21.7404 66.9448 24.2776H78.7211Z" fill="black"/>
<path d="M78.3904 28.6522C77.4072 30.7344 75.2883 32.1751 72.8329 32.1751C69.4405 32.1751 66.6904 29.4251 66.6904 26.0326C66.6904 25.4228 66.7793 24.8337 66.9448 24.2776M66.9448 24.2776C67.6999 21.7404 70.0504 19.8901 72.8329 19.8901C75.6155 19.8901 77.9659 21.7404 78.7211 24.2776H66.9448Z" stroke="black" stroke-width="1.755"/>
<path d="M110.896 24.2776C110.141 21.7404 107.79 19.8901 105.008 19.8901C102.225 19.8901 99.8747 21.7404 99.1196 24.2776H110.896Z" fill="black"/>
<path d="M110.565 28.6522C109.582 30.7344 107.463 32.1751 105.008 32.1751C101.615 32.1751 98.8652 29.4251 98.8652 26.0326C98.8652 25.4228 98.9541 24.8337 99.1196 24.2776M99.1196 24.2776C99.8747 21.7404 102.225 19.8901 105.008 19.8901C107.79 19.8901 110.141 21.7404 110.896 24.2776H99.1196Z" stroke="black" stroke-width="1.755"/>
<path d="M113.197 37.1476C113.197 37.1476 115.245 35.9776 115.245 33.0526C115.245 30.6686 115.245 27.3739 115.245 24.7148C115.245 22.2109 117.275 20.1826 119.779 20.1826V20.1826C122.282 20.1826 124.312 22.2124 124.312 24.7164V32.1751" stroke="black" stroke-width="1.755"/>
<path d="M130.455 19.3052V26.7639C130.455 29.4294 132.616 31.5902 135.281 31.5902V31.5902C137.947 31.5902 140.108 29.4294 140.108 26.7639V19.3052V32.1752" stroke="black" stroke-width="1.755"/>
</svg>
