<svg width="46" height="44" viewBox="0 0 46 44" fill="none" xmlns="http://www.w3.org/2000/svg">
<path d="M45.0493 41.0926H39.2612C38.8883 41.0926 38.5859 40.7889 38.5859 40.4142V33.6301C38.5859 33.2554 38.8883 32.9517 39.2612 32.9517H45.0493C45.4222 32.9517 45.7246 33.2554 45.7246 33.6301V40.4142C45.7246 40.7889 45.4222 41.0926 45.0493 41.0926ZM39.9365 39.7358H44.374V34.3085H39.9365V39.7358Z" fill="black"/>
<path d="M39.2624 44H0.675274C0.30233 44 0 43.6962 0 43.3216V12.3083C0 11.9336 0.30233 11.6299 0.675274 11.6299C1.04822 11.6299 1.35055 11.9336 1.35055 12.3083C1.35055 14.0718 2.77866 15.5065 4.53398 15.5065H39.2624C39.6353 15.5065 39.9376 15.8103 39.9376 16.185V23.9383C39.9376 24.313 39.6353 24.6167 39.2624 24.6167H32.5096C30.2224 24.6167 28.3615 26.4862 28.3615 28.7841C28.3615 31.082 30.2224 32.9515 32.5096 32.9515H39.2624C39.6353 32.9515 39.9376 33.2552 39.9376 33.6299V43.3216C39.9376 43.6962 39.6353 44 39.2624 44ZM1.35055 42.6431H38.5871V34.3083H32.5096C29.4776 34.3083 27.011 31.8302 27.011 28.7841C27.011 25.738 29.4776 23.2599 32.5096 23.2599H38.5871V16.8634H4.53398C3.29466 16.8634 2.16985 16.3612 1.35055 15.5488V42.6431Z" fill="black"/>
<path d="M45.0512 34.3082H32.5104C29.4784 34.3082 27.0117 31.8301 27.0117 28.784C27.0117 25.7379 29.4784 23.2598 32.5104 23.2598H45.0512C45.4241 23.2598 45.7265 23.5635 45.7265 23.9382V33.6298C45.7265 34.0045 45.4241 34.3082 45.0512 34.3082ZM32.5104 24.6166C30.2231 24.6166 28.3623 26.4861 28.3623 28.784C28.3623 31.0819 30.2231 32.9514 32.5104 32.9514H44.3759V24.6166H32.5104Z" fill="black"/>
<path d="M33.4757 31.401C32.0395 31.401 30.8711 30.2271 30.8711 28.7842C30.8711 27.3413 32.0395 26.1675 33.4757 26.1675C34.9119 26.1675 36.0804 27.3413 36.0804 28.7842C36.0804 30.2271 34.9119 31.401 33.4757 31.401ZM33.4757 27.5243C32.7842 27.5243 32.2216 28.0895 32.2216 28.7842C32.2216 29.4789 32.7842 30.0441 33.4757 30.0441C34.1672 30.0441 34.7298 29.4789 34.7298 28.7842C34.7298 28.0895 34.1672 27.5243 33.4757 27.5243Z" fill="black"/>
<path d="M10.323 21.7094H6.46434C6.09139 21.7094 5.78906 21.4056 5.78906 21.031C5.78906 20.6563 6.09139 20.3525 6.46434 20.3525H10.323C10.696 20.3525 10.9983 20.6563 10.9983 21.031C10.9983 21.4056 10.696 21.7094 10.323 21.7094Z" fill="black"/>
<path d="M18.0418 21.7094H14.1831C13.8101 21.7094 13.5078 21.4056 13.5078 21.031C13.5078 20.6563 13.8101 20.3525 14.1831 20.3525H18.0418C18.4147 20.3525 18.7171 20.6563 18.7171 21.031C18.7171 21.4056 18.4147 21.7094 18.0418 21.7094Z" fill="black"/>
<path d="M25.7566 21.7094H21.8979C21.525 21.7094 21.2227 21.4056 21.2227 21.031C21.2227 20.6563 21.525 20.3525 21.8979 20.3525H25.7566C26.1296 20.3525 26.4319 20.6563 26.4319 21.031C26.4319 21.4056 26.1296 21.7094 25.7566 21.7094Z" fill="black"/>
<path d="M33.4754 21.7094H29.6167C29.2437 21.7094 28.9414 21.4056 28.9414 21.031C28.9414 20.6563 29.2437 20.3525 29.6167 20.3525H33.4754C33.8483 20.3525 34.1507 20.6563 34.1507 21.031C34.1507 21.4056 33.8483 21.7094 33.4754 21.7094Z" fill="black"/>
<path d="M10.323 39.1542H6.46434C6.09139 39.1542 5.78906 38.8505 5.78906 38.4758C5.78906 38.1011 6.09139 37.7974 6.46434 37.7974H10.323C10.696 37.7974 10.9983 38.1011 10.9983 38.4758C10.9983 38.8505 10.696 39.1542 10.323 39.1542Z" fill="black"/>
<path d="M18.0418 39.1542H14.1831C13.8101 39.1542 13.5078 38.8505 13.5078 38.4758C13.5078 38.1011 13.8101 37.7974 14.1831 37.7974H18.0418C18.4147 37.7974 18.7171 38.1011 18.7171 38.4758C18.7171 38.8505 18.4147 39.1542 18.0418 39.1542Z" fill="black"/>
<path d="M25.7566 39.1542H21.8979C21.525 39.1542 21.2227 38.8505 21.2227 38.4758C21.2227 38.1011 21.525 37.7974 21.8979 37.7974H25.7566C26.1296 37.7974 26.4319 38.1011 26.4319 38.4758C26.4319 38.8505 26.1296 39.1542 25.7566 39.1542Z" fill="black"/>
<path d="M33.4754 39.1542H29.6167C29.2437 39.1542 28.9414 38.8505 28.9414 38.4758C28.9414 38.1011 29.2437 37.7974 29.6167 37.7974H33.4754C33.8483 37.7974 34.1507 38.1011 34.1507 38.4758C34.1507 38.8505 33.8483 39.1542 33.4754 39.1542Z" fill="black"/>
<path d="M7.42802 16.8636H4.53398C2.03393 16.8636 0 14.8202 0 12.3085C0 9.7968 2.03393 7.75342 4.53398 7.75342H16.5925C16.8761 7.75342 17.1295 7.93155 17.2268 8.19923C17.3242 8.46692 17.2445 8.76716 17.0274 8.95072L7.86299 16.704C7.74125 16.8071 7.58719 16.8636 7.42802 16.8636ZM4.53398 9.11025C2.77866 9.11025 1.35055 10.545 1.35055 12.3085C1.35055 14.072 2.77866 15.5067 4.53398 15.5067H7.18154L14.7422 9.11025H4.53398Z" fill="black"/>
<path d="M45.0515 24.6165H39.2635C38.8905 24.6165 38.5882 24.3128 38.5882 23.9381V16.8632H33.4754C33.2197 16.8632 32.9858 16.718 32.8714 16.4881L29.0127 8.73479C28.9081 8.52448 28.9192 8.27473 29.0423 8.07469C29.1653 7.87475 29.3827 7.75293 29.6167 7.75293H45.0515C45.4245 7.75293 45.7268 8.05667 45.7268 8.43134V23.938C45.7268 24.3128 45.4245 24.6165 45.0515 24.6165ZM39.9388 23.2597H44.3763V9.10986H30.7093L33.8927 15.5063H39.2635C39.6364 15.5063 39.9388 15.8101 39.9388 16.1848V23.2597Z" fill="black"/>
<path d="M33.4756 16.8634H7.42928C7.14567 16.8634 6.89225 16.6853 6.79491 16.4176C6.69758 16.1499 6.77726 15.8497 6.99431 15.6661L25.3232 0.15946C25.4815 0.025618 25.692 -0.0279767 25.8948 0.0139881C26.0973 0.0560499 26.2696 0.189116 26.3621 0.375002L34.0796 15.8816C34.1842 16.0919 34.1731 16.3417 34.0499 16.5417C33.9269 16.7417 33.7096 16.8634 33.4756 16.8634ZM9.27954 15.5066H32.383L25.5375 1.75199L9.27954 15.5066Z" fill="black"/>
</svg>
