<svg width="51" height="36" viewBox="0 0 51 36" fill="none" xmlns="http://www.w3.org/2000/svg">
<path d="M7.37979 0H43.6202C45.6504 0 47.4956 0.831533 48.8328 2.17109C50.17 3.51067 51 5.35918 51 7.39309V27.7653C51 29.7992 50.17 31.6477 48.8328 32.9873C47.4956 34.3268 45.6505 35.1584 43.6202 35.1584H7.37979C5.34955 35.1584 3.50437 34.3268 2.16718 32.9873C0.830044 31.6477 0 29.7992 0 27.7653V7.39309C0 5.35919 0.830037 3.51068 2.16718 2.17109C3.50436 0.83154 5.34954 0 7.37979 0ZM43.6202 1.58424H7.37979C5.7861 1.58424 4.33662 2.23802 3.28529 3.29121C2.234 4.34443 1.58139 5.79653 1.58139 7.39309V27.7653C1.58139 29.3618 2.23399 30.8139 3.28529 31.8672C4.33662 32.9203 5.7861 33.5741 7.37979 33.5741H43.6202C45.2139 33.5741 46.6634 32.9204 47.7147 31.8672C48.766 30.8139 49.4186 29.3618 49.4186 27.7653V7.39309C49.4186 5.79653 48.766 4.34443 47.7147 3.29121C46.6634 2.23802 45.2139 1.58424 43.6202 1.58424Z" fill="black"/>
<path d="M50.2093 9.83571C50.6459 9.83571 51 9.48105 51 9.04359C51 8.60613 50.6459 8.25146 50.2093 8.25146H0.790698C0.354024 8.25146 0 8.60613 0 9.04359C0 9.48105 0.354024 9.83571 0.790698 9.83571H50.2093Z" fill="black"/>
<path d="M33.5134 19.5718C33.0767 19.5718 32.7227 19.9264 32.7227 20.3639C32.7227 20.8014 33.0767 21.156 33.5134 21.156H44.5456C44.9822 21.156 45.3363 20.8014 45.3363 20.3639C45.3363 19.9264 44.9822 19.5718 44.5456 19.5718H33.5134Z" fill="black"/>
<path d="M37.5212 15.5151C37.0845 15.5151 36.7305 15.8698 36.7305 16.3073C36.7305 16.7447 37.0845 17.0994 37.5212 17.0994H44.5472C44.9839 17.0994 45.3379 16.7447 45.3379 16.3073C45.3379 15.8698 44.9839 15.5151 44.5472 15.5151H37.5212Z" fill="black"/>
<path d="M12.0235 28.5831C12.3681 28.3165 12.4317 27.8205 12.1656 27.4753C11.8995 27.1302 11.4044 27.0665 11.0598 27.333C10.8321 27.5088 10.5717 27.6493 10.2878 27.7455C10.0181 27.8369 9.72488 27.8867 9.41599 27.8867C8.68032 27.8867 8.01636 27.5971 7.53766 27.129C7.06511 26.6669 6.7728 26.0275 6.7728 25.3207C6.7728 24.6138 7.06511 23.9744 7.53766 23.5124C8.01636 23.0443 8.68032 22.7547 9.41599 22.7547C9.72488 22.7547 10.0181 22.8044 10.2878 22.8958C10.5717 22.9921 10.8321 23.1325 11.0598 23.3083C11.4044 23.5749 11.8995 23.5112 12.1656 23.166C12.4317 22.8208 12.3681 22.3248 12.0235 22.0582C11.656 21.7745 11.2413 21.5497 10.7943 21.3982C10.3592 21.2506 9.89512 21.1704 9.41599 21.1704C8.2552 21.1704 7.2022 21.6326 6.43808 22.3798C5.66785 23.1331 5.19141 24.1729 5.19141 25.3207C5.19141 26.4684 5.66785 27.5083 6.43808 28.2615C7.2022 29.0087 8.2552 29.4709 9.41599 29.4709C9.89512 29.4709 10.3591 29.3907 10.7943 29.2432C11.2413 29.0916 11.656 28.8668 12.0235 28.5831V28.5831Z" fill="black"/>
<path d="M13.666 21.1699C14.8267 21.1699 15.8797 21.6321 16.6439 22.3794C17.4141 23.1326 17.8905 24.1724 17.8905 25.3202C17.8905 26.4679 17.4141 27.5078 16.6439 28.261C15.8797 29.0082 14.8267 29.4704 13.666 29.4704C12.5052 29.4704 11.4521 29.0082 10.6881 28.261C9.91785 27.5078 9.44141 26.4679 9.44141 25.3202C9.44141 24.1725 9.91785 23.1326 10.6881 22.3794C11.4521 21.6321 12.5052 21.1699 13.666 21.1699ZM15.5443 23.5119C15.0656 23.0438 14.4016 22.7542 13.666 22.7542C12.9303 22.7542 12.2663 23.0438 11.7877 23.5119C11.3151 23.974 11.0228 24.6134 11.0228 25.3202C11.0228 26.027 11.3151 26.6664 11.7877 27.1285C12.2663 27.5966 12.9303 27.8862 13.666 27.8862C14.4016 27.8862 15.0656 27.5966 15.5443 27.1285C16.0168 26.6664 16.3091 26.027 16.3091 25.3202C16.3091 24.6134 16.0168 23.974 15.5443 23.5119Z" fill="black"/>
</svg>
