<svg width="48" height="47" viewBox="0 0 48 47" fill="none" xmlns="http://www.w3.org/2000/svg">
<path d="M22.945 13.6759C18.1922 14.1511 14.3899 17.9534 13.9146 22.7062C13.5978 25.7691 14.654 28.7264 16.8191 30.8916C18.7202 32.7927 21.3079 33.8489 24.0011 33.8489C24.318 33.8489 24.6877 33.8489 25.0045 33.7961C29.7573 33.3208 33.5596 29.5186 34.0349 24.7657C34.3517 21.7028 33.2955 18.7455 31.1304 16.5804C29.018 14.4152 26.0079 13.359 22.945 13.6759ZM31.9753 24.5545C31.6056 28.3039 28.5955 31.3141 24.7933 31.7365C22.3641 32.0006 19.9877 31.1556 18.2978 29.4129C16.6079 27.7231 15.7629 25.3466 15.9742 22.9174C16.3438 19.168 19.354 16.1579 23.1562 15.7354C23.4202 15.6826 23.6843 15.6826 23.9483 15.6826C26.0607 15.6826 28.1202 16.5275 29.6517 18.0062C31.3944 19.8017 32.2393 22.1781 31.9753 24.5545Z" fill="#262C29"/>
<path d="M45.4404 19.4337H43.909C43.2225 19.4337 42.6416 19.0112 42.4831 18.3775C42.0607 16.9517 41.4798 15.5258 40.6876 14.2056C40.3708 13.6247 40.4236 12.8854 40.9517 12.3573L42.1135 11.1955C42.9056 10.4034 42.9056 9.08315 42.1135 8.29101L39.2618 5.43933C38.4697 4.64719 37.1494 4.64719 36.3573 5.43933L35.1427 6.65393C34.6674 7.12921 33.9281 7.23483 33.3472 6.91798C32.0798 6.17865 30.6539 5.65056 29.2809 5.22809C28.6472 5.06966 28.1719 4.43596 28.1719 3.74944V2.05955C28.0663 0.950562 27.1685 0 26.0067 0H21.9933C20.8315 0 19.9337 0.950562 19.9337 2.05955V3.80225C19.9337 4.48876 19.4584 5.06966 18.8247 5.2809C17.3989 5.65056 16.0258 6.23146 14.7584 6.97079C14.1775 7.28764 13.4382 7.18202 12.9629 6.70674L11.7483 5.49213C10.9562 4.7 9.63595 4.7 8.84382 5.49213L5.99213 8.34382C5.2 9.13595 5.2 10.4562 5.99213 11.2483L7.15393 12.4101C7.62921 12.8854 7.73483 13.6247 7.41798 14.2584C6.67865 15.5787 6.04494 16.9517 5.62247 18.4303C5.46404 19.064 4.83034 19.4865 4.19663 19.4865H2.55955C1.39775 19.4865 0.5 20.4371 0.5 21.5461V25.5596C0.5 26.7213 1.45056 27.6191 2.55955 27.6191H3.98539C4.67191 27.6191 5.25281 28.0944 5.46404 28.7809C5.88652 30.2596 6.46742 31.6854 7.20674 33.0584C7.5236 33.6393 7.41798 34.3787 6.9427 34.8539L5.99213 35.8045C5.2 36.5966 5.2 37.9169 5.99213 38.709L8.84382 41.5607C9.63595 42.3528 10.9562 42.3528 11.7483 41.5607L12.6461 40.6629C13.1213 40.1876 13.9135 40.082 14.4944 40.4517C15.8674 41.2438 17.2933 41.8247 18.8247 42.2472C19.5112 42.4584 19.9337 43.0393 19.9337 43.7258V44.9404C19.9337 46.1022 20.8843 47 21.9933 47H26.0067C27.1685 47 28.0663 46.0494 28.0663 44.9404V43.7258C28.0663 43.0393 28.5416 42.4584 29.1753 42.2472C30.6539 41.8247 32.1326 41.191 33.5056 40.4517C34.1393 40.082 34.8787 40.1876 35.3539 40.6629L36.2517 41.5607C37.0438 42.3528 38.364 42.3528 39.1562 41.5607L42.0079 38.709C42.8 37.9169 42.8 36.5966 42.0079 35.8045L41.0573 34.8539C40.582 34.3787 40.4764 33.6393 40.7933 33.0584C41.5326 31.6854 42.1135 30.2596 42.536 28.7809C42.6944 28.0944 43.3281 27.6191 44.0146 27.6191H45.4404C46.6022 27.6191 47.5 26.6685 47.5 25.5596V21.5461C47.5 20.3315 46.5494 19.4337 45.4404 19.4337ZM45.3876 25.4539H44.0146C42.3775 25.4539 40.9517 26.5629 40.4764 28.2C40.1067 29.5202 39.5787 30.7876 38.9449 32.0022C38.1528 33.3753 38.4169 35.1708 39.5787 36.3326L40.4764 37.2303L37.7303 40.0292L36.8854 39.1843C35.7236 38.0225 33.9281 37.8112 32.5022 38.6034C31.2876 39.2899 30.0202 39.818 28.6472 40.1876C27.0629 40.6101 25.9539 42.0888 25.9539 43.673V44.8876H21.9933V43.7258C21.9933 42.0888 20.8843 40.6629 19.3 40.2404C17.9798 39.8708 16.6595 39.3427 15.4449 38.6562C14.0191 37.8112 12.1708 38.0753 11.0618 39.2371L10.2697 40.0292L7.47079 37.2303L8.36854 36.3326C9.53034 35.1708 9.74157 33.4281 9.00225 32.0022C8.31573 30.7876 7.84045 29.5202 7.47079 28.2C7.04832 26.6157 5.56966 25.4539 3.93258 25.4539H2.61236V21.4933H4.09101C5.67528 21.4933 7.10112 20.4371 7.5764 18.9056C7.94607 17.6382 8.47416 16.3708 9.16067 15.209C9.95281 13.7831 9.74157 11.9876 8.57977 10.8258L7.47079 9.71685L10.2697 6.91798L11.4315 8.07977C12.5405 9.24157 14.336 9.45281 15.7618 8.71348C16.9236 8.07977 18.1382 7.60449 19.4056 7.23483C20.9371 6.81236 22.0461 5.38652 22.0461 3.74944V2.11236H26.0067V3.80225C26.0067 5.43933 27.1157 6.86517 28.6472 7.28764C29.9146 7.6573 31.1292 8.13258 32.291 8.76629C33.7169 9.55843 35.4596 9.29438 36.6213 8.13258L37.7831 6.97079L40.582 9.76966L39.473 10.8787C38.3112 12.0404 38.1 13.836 38.8921 15.2618C39.5787 16.4236 40.1067 17.691 40.4764 18.9584C40.8989 20.4899 42.3775 21.5461 43.9618 21.5461H45.4404V25.4539H45.3876Z" fill="#262C29"/>
</svg>
