<svg width="128" height="109" viewBox="0 0 128 109" fill="none" xmlns="http://www.w3.org/2000/svg">
<path fill-rule="evenodd" clip-rule="evenodd" d="M1.79883 3.00732C1.79883 2.73118 2.02269 2.50732 2.29883 2.50732H13.7387C14.3801 2.50732 14.9343 2.95538 15.0687 3.58253L17.6383 15.5738H113.932C114.871 15.5738 115.579 16.4274 115.406 17.3506L109.393 49.3749C109.19 50.4608 108.297 51.2841 107.198 51.3998L26.7368 59.8694L28.4654 71.9698C28.6414 73.2014 29.6962 74.1162 30.9403 74.1162H102.117C102.393 74.1162 102.617 74.3401 102.617 74.6162C102.617 74.8924 102.393 75.1162 102.117 75.1162H30.9403C29.1985 75.1162 27.7218 73.8355 27.4755 72.1112L25.6757 59.5124L16.7452 16.1786L16.7447 16.1766L14.0909 3.79206C14.0553 3.62598 13.9085 3.50732 13.7387 3.50732H2.29883C2.02269 3.50732 1.79883 3.28347 1.79883 3.00732ZM17.8476 16.5738L26.5667 58.8818L107.093 50.4053C107.753 50.3359 108.288 49.8419 108.411 49.1903L114.423 17.1661C114.481 16.8583 114.245 16.5738 113.932 16.5738H17.8476ZM41.3487 85.9662C35.6326 85.9662 30.9989 90.6 30.9989 96.3161C30.9989 102.032 35.6326 106.666 41.3487 106.666C47.0647 106.666 51.6985 102.032 51.6985 96.3161C51.6985 90.6 47.0647 85.9662 41.3487 85.9662ZM29.9989 96.3161C29.9989 90.0477 35.0803 84.9662 41.3487 84.9662C47.617 84.9662 52.6985 90.0477 52.6985 96.3161C52.6985 102.584 47.617 107.666 41.3487 107.666C35.0803 107.666 29.9989 102.584 29.9989 96.3161ZM78.7402 96.3161C78.7402 90.6 83.374 85.9662 89.0901 85.9662C94.8061 85.9662 99.4399 90.6 99.4399 96.3161C99.4399 102.032 94.8061 106.666 89.0901 106.666C83.374 106.666 78.7402 102.032 78.7402 96.3161ZM89.0901 84.9662C82.8217 84.9662 77.7402 90.0477 77.7402 96.3161C77.7402 102.584 82.8217 107.666 89.0901 107.666C95.3584 107.666 100.44 102.584 100.44 96.3161C100.44 90.0477 95.3584 84.9662 89.0901 84.9662Z" fill="#262C29"/>
<path d="M15.0687 3.58253L16.0465 3.37301V3.37301L15.0687 3.58253ZM17.6383 15.5738L16.6605 15.7833L16.8298 16.5738H17.6383V15.5738ZM115.406 17.3506L114.423 17.1661V17.1661L115.406 17.3506ZM109.393 49.3749L110.376 49.5594V49.5594L109.393 49.3749ZM107.198 51.3998L107.303 52.3943H107.303L107.198 51.3998ZM26.7368 59.8694L26.6321 58.8749L25.6001 58.9835L25.7469 60.0108L26.7368 59.8694ZM28.4654 71.9698L27.4755 72.1112V72.1112L28.4654 71.9698ZM27.4755 72.1112L28.4654 71.9698L27.4755 72.1112ZM25.6757 59.5124L26.6656 59.371L26.6613 59.3406L26.6551 59.3105L25.6757 59.5124ZM16.7452 16.1786L17.7246 15.9767L17.7229 15.969L16.7452 16.1786ZM16.7447 16.1766L15.7669 16.3861L15.7669 16.3862L16.7447 16.1766ZM14.0909 3.79206L15.0687 3.58253L15.0687 3.58253L14.0909 3.79206ZM26.5667 58.8818L25.5873 59.0836L25.7702 59.9712L26.6714 59.8763L26.5667 58.8818ZM17.8476 16.5738V15.5738H16.6205L16.8682 16.7756L17.8476 16.5738ZM107.093 50.4053L106.989 49.4108L107.093 50.4053ZM108.411 49.1903L107.428 49.0058V49.0058L108.411 49.1903ZM114.423 17.1661L115.406 17.3506V17.3506L114.423 17.1661ZM2.29883 1.50732C1.4704 1.50732 0.798828 2.1789 0.798828 3.00732H2.79883C2.79883 3.28347 2.57497 3.50732 2.29883 3.50732V1.50732ZM13.7387 1.50732H2.29883V3.50732H13.7387V1.50732ZM16.0465 3.37301C15.8133 2.28478 14.8516 1.50732 13.7387 1.50732V3.50732C13.9085 3.50732 14.0553 3.62598 14.0909 3.79206L16.0465 3.37301ZM18.6161 15.3643L16.0465 3.37301L14.0909 3.79206L16.6605 15.7833L18.6161 15.3643ZM113.932 14.5738H17.6383V16.5738H113.932V14.5738ZM116.389 17.5351C116.678 15.9964 115.497 14.5738 113.932 14.5738V16.5738C114.245 16.5738 114.481 16.8583 114.423 17.1661L116.389 17.5351ZM110.376 49.5594L116.389 17.5351L114.423 17.1661L108.411 49.1903L110.376 49.5594ZM107.303 52.3943C108.841 52.2324 110.091 51.0797 110.376 49.5594L108.411 49.1903C108.288 49.8419 107.753 50.3359 107.093 50.4053L107.303 52.3943ZM26.8415 60.8639L107.303 52.3943L107.093 50.4053L26.6321 58.8749L26.8415 60.8639ZM29.4554 71.8284L27.7268 59.728L25.7469 60.0108L27.4755 72.1112L29.4554 71.8284ZM30.9403 73.1162C30.1938 73.1162 29.561 72.5674 29.4554 71.8284L27.4755 72.1112C27.7218 73.8355 29.1985 75.1162 30.9403 75.1162V73.1162ZM102.117 73.1162H30.9403V75.1162H102.117V73.1162ZM103.617 74.6162C103.617 73.7878 102.946 73.1162 102.117 73.1162V75.1162C101.841 75.1162 101.617 74.8924 101.617 74.6162H103.617ZM102.117 76.1162C102.946 76.1162 103.617 75.4447 103.617 74.6162H101.617C101.617 74.3401 101.841 74.1162 102.117 74.1162V76.1162ZM30.9403 76.1162H102.117V74.1162H30.9403V76.1162ZM26.4855 72.2526C26.8022 74.4696 28.7009 76.1162 30.9403 76.1162V74.1162C29.6962 74.1162 28.6414 73.2014 28.4654 71.9698L26.4855 72.2526ZM24.6857 59.6538L26.4855 72.2526L28.4654 71.9698L26.6656 59.371L24.6857 59.6538ZM15.7657 16.3804L24.6962 59.7142L26.6551 59.3105L17.7246 15.9767L15.7657 16.3804ZM15.7669 16.3862L15.7674 16.3882L17.7229 15.969L17.7225 15.967L15.7669 16.3862ZM13.1131 4.00159L15.7669 16.3861L17.7225 15.9671L15.0687 3.58253L13.1131 4.00159ZM13.7387 4.50732C13.437 4.50732 13.1763 4.29658 13.1131 4.0016L15.0687 3.58253C14.9343 2.95538 14.3801 2.50732 13.7387 2.50732V4.50732ZM2.29883 4.50732H13.7387V2.50732H2.29883V4.50732ZM0.798828 3.00732C0.798828 3.83575 1.4704 4.50732 2.29883 4.50732V2.50732C2.57497 2.50732 2.79883 2.73118 2.79883 3.00732H0.798828ZM27.5461 58.68L18.827 16.3719L16.8682 16.7756L25.5873 59.0836L27.5461 58.68ZM106.989 49.4108L26.462 57.8873L26.6714 59.8763L107.198 51.3998L106.989 49.4108ZM107.428 49.0058C107.387 49.223 107.209 49.3877 106.989 49.4108L107.198 51.3998C108.297 51.2841 109.19 50.4608 109.393 49.3748L107.428 49.0058ZM113.44 16.9815L107.428 49.0058L109.393 49.3749L115.406 17.3506L113.44 16.9815ZM113.932 17.5738C113.619 17.5738 113.383 17.2893 113.44 16.9815L115.406 17.3506C115.579 16.4274 114.871 15.5738 113.932 15.5738V17.5738ZM17.8476 17.5738H113.932V15.5738H17.8476V17.5738ZM31.9989 96.3161C31.9989 91.1523 36.1849 86.9662 41.3487 86.9662V84.9662C35.0803 84.9662 29.9989 90.0477 29.9989 96.3161H31.9989ZM41.3487 105.666C36.1849 105.666 31.9989 101.48 31.9989 96.3161H29.9989C29.9989 102.584 35.0803 107.666 41.3487 107.666V105.666ZM50.6985 96.3161C50.6985 101.48 46.5125 105.666 41.3487 105.666V107.666C47.617 107.666 52.6985 102.584 52.6985 96.3161H50.6985ZM41.3487 86.9662C46.5125 86.9662 50.6985 91.1523 50.6985 96.3161H52.6985C52.6985 90.0477 47.617 84.9662 41.3487 84.9662V86.9662ZM41.3487 83.9662C34.5281 83.9662 28.9989 89.4954 28.9989 96.3161H30.9989C30.9989 90.6 35.6326 85.9662 41.3487 85.9662V83.9662ZM53.6985 96.3161C53.6985 89.4954 48.1693 83.9662 41.3487 83.9662V85.9662C47.0647 85.9662 51.6985 90.6 51.6985 96.3161H53.6985ZM41.3487 108.666C48.1693 108.666 53.6985 103.137 53.6985 96.3161H51.6985C51.6985 102.032 47.0647 106.666 41.3487 106.666V108.666ZM28.9989 96.3161C28.9989 103.137 34.5281 108.666 41.3487 108.666V106.666C35.6326 106.666 30.9989 102.032 30.9989 96.3161H28.9989ZM89.0901 84.9662C82.8217 84.9662 77.7402 90.0477 77.7402 96.3161H79.7402C79.7402 91.1523 83.9263 86.9662 89.0901 86.9662V84.9662ZM100.44 96.3161C100.44 90.0477 95.3584 84.9662 89.0901 84.9662V86.9662C94.2538 86.9662 98.4399 91.1523 98.4399 96.3161H100.44ZM89.0901 107.666C95.3584 107.666 100.44 102.584 100.44 96.3161H98.4399C98.4399 101.48 94.2538 105.666 89.0901 105.666V107.666ZM77.7402 96.3161C77.7402 102.584 82.8217 107.666 89.0901 107.666V105.666C83.9263 105.666 79.7402 101.48 79.7402 96.3161H77.7402ZM78.7402 96.3161C78.7402 90.6 83.374 85.9662 89.0901 85.9662V83.9662C82.2694 83.9662 76.7402 89.4954 76.7402 96.3161H78.7402ZM89.0901 106.666C83.374 106.666 78.7402 102.032 78.7402 96.3161H76.7402C76.7402 103.137 82.2694 108.666 89.0901 108.666V106.666ZM99.4399 96.3161C99.4399 102.032 94.8061 106.666 89.0901 106.666V108.666C95.9107 108.666 101.44 103.137 101.44 96.3161H99.4399ZM89.0901 85.9662C94.8061 85.9662 99.4399 90.6 99.4399 96.3161H101.44C101.44 89.4954 95.9107 83.9662 89.0901 83.9662V85.9662Z" fill="black"/>
<rect x="96.877" width="30.3255" height="30.3255" rx="7.77778" fill="#FF0000"/>
<path d="M105.541 15.5962H118.538" stroke="white" stroke-width="2"/>
</svg>
