<svg width="125" height="109" viewBox="0 0 125 109" fill="none" xmlns="http://www.w3.org/2000/svg">
<path fill-rule="evenodd" clip-rule="evenodd" d="M1.79688 3.00684C1.79688 2.73069 2.02073 2.50684 2.29688 2.50684H13.7367C14.3781 2.50684 14.9324 2.95489 15.0668 3.58205L17.6363 15.5733H113.93C114.869 15.5733 115.577 16.4269 115.404 17.3501L109.392 49.3744C109.188 50.4603 108.295 51.2836 107.196 51.3993L26.7349 59.8689L28.4635 71.9693C28.6394 73.2009 29.6942 74.1158 30.9384 74.1158H102.115C102.391 74.1158 102.615 74.3396 102.615 74.6158C102.615 74.8919 102.391 75.1158 102.115 75.1158H30.9384C29.1966 75.1158 27.7199 73.835 27.4735 72.1107L25.6737 59.5119L16.7432 16.1781L16.7428 16.1761L14.089 3.79158C14.0534 3.62549 13.9066 3.50684 13.7367 3.50684H2.29688C2.02073 3.50684 1.79688 3.28298 1.79688 3.00684ZM17.8456 16.5733L26.5648 58.8813L107.091 50.4048C107.751 50.3354 108.286 49.8414 108.409 49.1898L114.421 17.1656C114.479 16.8578 114.243 16.5733 113.93 16.5733H17.8456ZM41.3467 85.9657C35.6307 85.9657 30.9969 90.5995 30.9969 96.3156C30.9969 102.032 35.6307 106.665 41.3467 106.665C47.0628 106.665 51.6966 102.032 51.6966 96.3156C51.6966 90.5995 47.0628 85.9657 41.3467 85.9657ZM29.9969 96.3156C29.9969 90.0472 35.0784 84.9657 41.3467 84.9657C47.6151 84.9657 52.6966 90.0472 52.6966 96.3156C52.6966 102.584 47.6151 107.665 41.3467 107.665C35.0784 107.665 29.9969 102.584 29.9969 96.3156ZM78.7383 96.3156C78.7383 90.5995 83.3721 85.9657 89.0881 85.9657C94.8042 85.9657 99.438 90.5995 99.438 96.3156C99.438 102.032 94.8042 106.665 89.0881 106.665C83.3721 106.665 78.7383 102.032 78.7383 96.3156ZM89.0881 84.9657C82.8198 84.9657 77.7383 90.0472 77.7383 96.3156C77.7383 102.584 82.8198 107.665 89.0881 107.665C95.3565 107.665 100.438 102.584 100.438 96.3156C100.438 90.0472 95.3565 84.9657 89.0881 84.9657Z" fill="#262C29"/>
<path d="M15.0668 3.58205L16.0446 3.37252V3.37252L15.0668 3.58205ZM17.6363 15.5733L16.6585 15.7828L16.8279 16.5733H17.6363V15.5733ZM115.404 17.3501L114.421 17.1656V17.1656L115.404 17.3501ZM109.392 49.3744L110.374 49.5589V49.5589L109.392 49.3744ZM107.196 51.3993L107.301 52.3938H107.301L107.196 51.3993ZM26.7349 59.8689L26.6302 58.8744L25.5982 58.9831L25.7449 60.0103L26.7349 59.8689ZM28.4635 71.9693L27.4735 72.1107V72.1107L28.4635 71.9693ZM27.4735 72.1107L28.4635 71.9693L27.4735 72.1107ZM25.6737 59.5119L26.6637 59.3705L26.6593 59.3401L26.6531 59.31L25.6737 59.5119ZM16.7432 16.1781L17.7226 15.9762L17.721 15.9685L16.7432 16.1781ZM16.7428 16.1761L15.765 16.3857L15.765 16.3857L16.7428 16.1761ZM14.089 3.79158L15.0668 3.58205L15.0668 3.58204L14.089 3.79158ZM26.5648 58.8813L25.5853 59.0831L25.7683 59.9707L26.6694 59.8758L26.5648 58.8813ZM17.8456 16.5733V15.5733H16.6185L16.8662 16.7752L17.8456 16.5733ZM107.091 50.4048L106.987 49.4103L107.091 50.4048ZM108.409 49.1898L107.426 49.0053V49.0053L108.409 49.1898ZM114.421 17.1656L115.404 17.3501V17.3501L114.421 17.1656ZM2.29688 1.50684C1.46845 1.50684 0.796875 2.17841 0.796875 3.00684H2.79688C2.79688 3.28298 2.57302 3.50684 2.29688 3.50684V1.50684ZM13.7367 1.50684H2.29688V3.50684H13.7367V1.50684ZM16.0446 3.37252C15.8114 2.28429 14.8497 1.50684 13.7367 1.50684V3.50684C13.9066 3.50684 14.0534 3.62549 14.089 3.79158L16.0446 3.37252ZM18.6141 15.3638L16.0446 3.37252L14.089 3.79158L16.6585 15.7828L18.6141 15.3638ZM113.93 14.5733H17.6363V16.5733H113.93V14.5733ZM116.387 17.5346C116.676 15.9959 115.496 14.5733 113.93 14.5733V16.5733C114.243 16.5733 114.479 16.8578 114.421 17.1656L116.387 17.5346ZM110.374 49.5589L116.387 17.5346L114.421 17.1656L108.409 49.1898L110.374 49.5589ZM107.301 52.3938C108.839 52.2319 110.089 51.0792 110.374 49.5589L108.409 49.1898C108.286 49.8414 107.751 50.3354 107.091 50.4048L107.301 52.3938ZM26.8395 60.8634L107.301 52.3938L107.091 50.4048L26.6302 58.8744L26.8395 60.8634ZM29.4534 71.8279L27.7248 59.7275L25.7449 60.0103L27.4735 72.1107L29.4534 71.8279ZM30.9384 73.1158C30.1919 73.1158 29.559 72.5669 29.4534 71.8279L27.4735 72.1107C27.7199 73.835 29.1966 75.1158 30.9384 75.1158V73.1158ZM102.115 73.1158H30.9384V75.1158H102.115V73.1158ZM103.615 74.6158C103.615 73.7873 102.944 73.1158 102.115 73.1158V75.1158C101.839 75.1158 101.615 74.8919 101.615 74.6158H103.615ZM102.115 76.1158C102.944 76.1158 103.615 75.4442 103.615 74.6158H101.615C101.615 74.3396 101.839 74.1158 102.115 74.1158V76.1158ZM30.9384 76.1158H102.115V74.1158H30.9384V76.1158ZM26.4836 72.2522C26.8003 74.4691 28.6989 76.1158 30.9384 76.1158V74.1158C29.6942 74.1158 28.6394 73.2009 28.4635 71.9693L26.4836 72.2522ZM24.6838 59.6533L26.4836 72.2522L28.4635 71.9693L26.6637 59.3705L24.6838 59.6533ZM15.7638 16.3799L24.6943 59.7137L26.6531 59.31L17.7226 15.9762L15.7638 16.3799ZM15.765 16.3857L15.7654 16.3877L17.721 15.9685L17.7206 15.9665L15.765 16.3857ZM13.1111 4.0011L15.765 16.3857L17.7206 15.9666L15.0668 3.58205L13.1111 4.0011ZM13.7367 4.50684C13.435 4.50684 13.1744 4.29609 13.1111 4.00111L15.0668 3.58204C14.9324 2.95489 14.3781 2.50684 13.7367 2.50684V4.50684ZM2.29688 4.50684H13.7367V2.50684H2.29688V4.50684ZM0.796875 3.00684C0.796875 3.83526 1.46845 4.50684 2.29688 4.50684V2.50684C2.57302 2.50684 2.79688 2.73069 2.79688 3.00684H0.796875ZM27.5442 58.6795L18.8251 16.3715L16.8662 16.7752L25.5853 59.0831L27.5442 58.6795ZM106.987 49.4103L26.4601 57.8868L26.6694 59.8758L107.196 51.3993L106.987 49.4103ZM107.426 49.0053C107.385 49.2225 107.207 49.3872 106.987 49.4103L107.196 51.3993C108.295 51.2836 109.188 50.4603 109.392 49.3744L107.426 49.0053ZM113.439 16.981L107.426 49.0053L109.392 49.3744L115.404 17.3501L113.439 16.981ZM113.93 17.5733C113.617 17.5733 113.381 17.2888 113.439 16.981L115.404 17.3501C115.577 16.4269 114.869 15.5733 113.93 15.5733V17.5733ZM17.8456 17.5733H113.93V15.5733H17.8456V17.5733ZM31.9969 96.3156C31.9969 91.1518 36.183 86.9657 41.3467 86.9657V84.9657C35.0784 84.9657 29.9969 90.0472 29.9969 96.3156H31.9969ZM41.3467 105.665C36.183 105.665 31.9969 101.479 31.9969 96.3156H29.9969C29.9969 102.584 35.0784 107.665 41.3467 107.665V105.665ZM50.6966 96.3156C50.6966 101.479 46.5105 105.665 41.3467 105.665V107.665C47.6151 107.665 52.6966 102.584 52.6966 96.3156H50.6966ZM41.3467 86.9657C46.5105 86.9657 50.6966 91.1518 50.6966 96.3156H52.6966C52.6966 90.0472 47.6151 84.9657 41.3467 84.9657V86.9657ZM41.3467 83.9657C34.5261 83.9657 28.9969 89.4949 28.9969 96.3156H30.9969C30.9969 90.5995 35.6307 85.9657 41.3467 85.9657V83.9657ZM53.6966 96.3156C53.6966 89.4949 48.1674 83.9657 41.3467 83.9657V85.9657C47.0628 85.9657 51.6966 90.5995 51.6966 96.3156H53.6966ZM41.3467 108.665C48.1674 108.665 53.6966 103.136 53.6966 96.3156H51.6966C51.6966 102.032 47.0628 106.665 41.3467 106.665V108.665ZM28.9969 96.3156C28.9969 103.136 34.5261 108.665 41.3467 108.665V106.665C35.6307 106.665 30.9969 102.032 30.9969 96.3156H28.9969ZM89.0881 84.9657C82.8198 84.9657 77.7383 90.0472 77.7383 96.3156H79.7383C79.7383 91.1518 83.9243 86.9657 89.0881 86.9657V84.9657ZM100.438 96.3156C100.438 90.0472 95.3565 84.9657 89.0881 84.9657V86.9657C94.2519 86.9657 98.438 91.1518 98.438 96.3156H100.438ZM89.0881 107.665C95.3565 107.665 100.438 102.584 100.438 96.3156H98.438C98.438 101.479 94.2519 105.665 89.0881 105.665V107.665ZM77.7383 96.3156C77.7383 102.584 82.8198 107.665 89.0881 107.665V105.665C83.9243 105.665 79.7383 101.479 79.7383 96.3156H77.7383ZM78.7383 96.3156C78.7383 90.5995 83.3721 85.9657 89.0881 85.9657V83.9657C82.2675 83.9657 76.7383 89.495 76.7383 96.3156H78.7383ZM89.0881 106.665C83.3721 106.665 78.7383 102.032 78.7383 96.3156H76.7383C76.7383 103.136 82.2675 108.665 89.0881 108.665V106.665ZM99.438 96.3156C99.438 102.032 94.8042 106.665 89.0881 106.665V108.665C95.9087 108.665 101.438 103.136 101.438 96.3156H99.438ZM89.0881 85.9657C94.8042 85.9657 99.438 90.5995 99.438 96.3156H101.438C101.438 89.495 95.9087 83.9657 89.0881 83.9657V85.9657Z" fill="black"/>
<rect x="95" width="30" height="30" rx="7.77778" fill="#17AF6F"/>
<path d="M103.332 15.7143L107.776 20L116.665 10" stroke="white" stroke-width="2"/>
</svg>
