<?xml version="1.0" encoding="UTF-8" standalone="no"?>
<svg
   xmlns:dc="http://purl.org/dc/elements/1.1/"
   xmlns:cc="http://creativecommons.org/ns#"
   xmlns:rdf="http://www.w3.org/1999/02/22-rdf-syntax-ns#"
   xmlns:svg="http://www.w3.org/2000/svg"
   xmlns="http://www.w3.org/2000/svg"
   xmlns:sodipodi="http://sodipodi.sourceforge.net/DTD/sodipodi-0.dtd"
   xmlns:inkscape="http://www.inkscape.org/namespaces/inkscape"
   width="13"
   height="16"
   viewBox="0 0 13 16"
   fill="none"
   version="1.1"
   id="svg6"
   sodipodi:docname="adress.svg"
   inkscape:version="0.92.3 (2405546, 2018-03-11)">
  <metadata
     id="metadata12">
    <rdf:RDF>
      <cc:Work
         rdf:about="">
        <dc:format>image/svg+xml</dc:format>
        <dc:type
           rdf:resource="http://purl.org/dc/dcmitype/StillImage" />
        <dc:title></dc:title>
      </cc:Work>
    </rdf:RDF>
  </metadata>
  <defs
     id="defs10" />
  <sodipodi:namedview
     pagecolor="#ffffff"
     bordercolor="#666666"
     borderopacity="1"
     objecttolerance="10"
     gridtolerance="10"
     guidetolerance="10"
     inkscape:pageopacity="0"
     inkscape:pageshadow="2"
     inkscape:window-width="1366"
     inkscape:window-height="705"
     id="namedview8"
     showgrid="false"
     inkscape:zoom="14.75"
     inkscape:cx="6.5"
     inkscape:cy="8"
     inkscape:window-x="-8"
     inkscape:window-y="-8"
     inkscape:window-maximized="1"
     inkscape:current-layer="svg6" />
  <path
     id="circle4"
     style="color:#000000;font-style:normal;font-variant:normal;font-weight:normal;font-stretch:normal;font-size:medium;line-height:normal;font-family:sans-serif;font-variant-ligatures:normal;font-variant-position:normal;font-variant-caps:normal;font-variant-numeric:normal;font-variant-alternates:normal;font-feature-settings:normal;text-indent:0;text-align:start;text-decoration:none;text-decoration-line:none;text-decoration-style:solid;text-decoration-color:#000000;letter-spacing:normal;word-spacing:normal;text-transform:none;writing-mode:lr-tb;direction:ltr;text-orientation:mixed;dominant-baseline:auto;baseline-shift:baseline;text-anchor:start;white-space:normal;shape-padding:0;clip-rule:nonzero;display:inline;overflow:visible;visibility:visible;opacity:1;isolation:auto;mix-blend-mode:normal;color-interpolation:sRGB;color-interpolation-filters:linearRGB;solid-color:#000000;solid-opacity:1;vector-effect:none;fill:#ffffff;fill-opacity:1;fill-rule:nonzero;stroke:none;stroke-width:1;stroke-linecap:butt;stroke-linejoin:miter;stroke-miterlimit:4;stroke-dasharray:none;stroke-dashoffset:0;stroke-opacity:1;color-rendering:auto;image-rendering:auto;shape-rendering:auto;text-rendering:auto;enable-background:accumulate"
     d="m 6.5,3.8261719 c -1.6509319,0 -3,1.349068 -3,3 0,1.6509319 1.3490681,3 3,3 1.6509319,0 3,-1.3490681 3,-3 0,-1.650932 -1.3490681,-3 -3,-3 z m 0,1 c 1.1104918,0 2,0.8895082 2,2 0,1.1104918 -0.8895082,2 -2,2 -1.1104918,0 -2,-0.8895082 -2,-2 0,-1.1104918 0.8895082,-2 2,-2 z M 6.5,0 C 2.9160702,0 0,2.9160702 0,6.5 c 0,1.8414486 1.1027799,4.01535 2.5,5.845703 0.6897928,0.903618 1.43346,1.685328 2.140625,2.251953 v 0.002 c 0.353614,0.283189 0.6882826,0.503702 1.0058594,0.660157 C 5.9698603,15.419143 6.2376734,15.5 6.5,15.5 6.7623266,15.5 7.0301397,15.41914 7.3535156,15.259766 7.6710924,15.103311 8.005761,14.882798 8.359375,14.599609 v -0.002 C 9.06654,14.031031 9.8101724,13.249313 10.5,12.345703 11.897154,10.515355 13,8.3414527 13,6.5 13,2.9160702 10.08393,0 6.5,0 Z m 0,1 C 9.5434902,1 12,3.4565098 12,6.5 12,7.9144073 11.017124,10.021382 9.7050781,11.740234 9.0574057,12.588625 8.35661,13.319785 7.734375,13.818359 7.423189,14.06757 7.1401526,14.250936 6.9121094,14.363281 6.6799453,14.477704 6.5261134,14.5 6.5,14.5 6.4738866,14.5 6.3200547,14.477704 6.0878906,14.363281 5.8598474,14.250936 5.576811,14.06757 5.265625,13.818359 4.64339,13.319785 3.9425491,12.588616 3.2949219,11.740234 1.982822,10.021388 1,7.9144114 1,6.5 1,3.4565098 3.4565098,1 6.5,1 Z" />
</svg>
