<?xml version="1.0" encoding="UTF-8" standalone="no"?>
<svg
   xmlns:dc="http://purl.org/dc/elements/1.1/"
   xmlns:cc="http://creativecommons.org/ns#"
   xmlns:rdf="http://www.w3.org/1999/02/22-rdf-syntax-ns#"
   xmlns:svg="http://www.w3.org/2000/svg"
   xmlns="http://www.w3.org/2000/svg"
   xmlns:sodipodi="http://sodipodi.sourceforge.net/DTD/sodipodi-0.dtd"
   xmlns:inkscape="http://www.inkscape.org/namespaces/inkscape"
   width="23"
   height="19"
   viewBox="0 0 23 19"
   fill="none"
   version="1.1"
   id="svg4"
   sodipodi:docname="arrow-3.svg"
   inkscape:version="0.92.3 (2405546, 2018-03-11)">
  <metadata
     id="metadata10">
    <rdf:RDF>
      <cc:Work
         rdf:about="">
        <dc:format>image/svg+xml</dc:format>
        <dc:type
           rdf:resource="http://purl.org/dc/dcmitype/StillImage" />
        <dc:title></dc:title>
      </cc:Work>
    </rdf:RDF>
  </metadata>
  <defs
     id="defs8" />
  <sodipodi:namedview
     pagecolor="#ffffff"
     bordercolor="#666666"
     borderopacity="1"
     objecttolerance="10"
     gridtolerance="10"
     guidetolerance="10"
     inkscape:pageopacity="0"
     inkscape:pageshadow="2"
     inkscape:window-width="1440"
     inkscape:window-height="837"
     id="namedview6"
     showgrid="false"
     inkscape:zoom="12.421053"
     inkscape:cx="11.5"
     inkscape:cy="9.5"
     inkscape:window-x="-8"
     inkscape:window-y="-8"
     inkscape:window-maximized="1"
     inkscape:current-layer="svg4" />
  <path
     id="path2"
     style="color:#000000;font-style:normal;font-variant:normal;font-weight:normal;font-stretch:normal;font-size:medium;line-height:normal;font-family:sans-serif;font-variant-ligatures:normal;font-variant-position:normal;font-variant-caps:normal;font-variant-numeric:normal;font-variant-alternates:normal;font-feature-settings:normal;text-indent:0;text-align:start;text-decoration:none;text-decoration-line:none;text-decoration-style:solid;text-decoration-color:#000000;letter-spacing:normal;word-spacing:normal;text-transform:none;writing-mode:lr-tb;direction:ltr;text-orientation:mixed;dominant-baseline:auto;baseline-shift:baseline;text-anchor:start;white-space:normal;shape-padding:0;clip-rule:nonzero;display:inline;overflow:visible;visibility:visible;opacity:1;isolation:auto;mix-blend-mode:normal;color-interpolation:sRGB;color-interpolation-filters:linearRGB;solid-color:#000000;solid-opacity:1;vector-effect:none;fill:#000000;fill-opacity:1;fill-rule:nonzero;stroke:none;stroke-width:1;stroke-linecap:round;stroke-linejoin:miter;stroke-miterlimit:4;stroke-dasharray:none;stroke-dashoffset:0;stroke-opacity:1;color-rendering:auto;image-rendering:auto;shape-rendering:auto;text-rendering:auto;enable-background:accumulate"
     d="M 13.494141,0.49414062 A 0.50005,0.50005 0 0 0 13.146484,1.3535156 L 20.792969,9 H 1 a 0.50005,0.50005 0 1 0 0,1 h 19.792969 l -7.646485,7.646484 a 0.50005,0.50005 0 1 0 0.707032,0.707032 l 8.433593,-8.4355472 a 0.50005,0.50005 0 0 0 0.0078,-0.00586 0.50005,0.50005 0 0 0 0.06641,-0.058594 0.50005,0.50005 0 0 0 0.103516,-0.1523437 0.50005,0.50005 0 0 0 0.0059,-0.013672 0.50005,0.50005 0 0 0 0,-0.00195 0.50005,0.50005 0 0 0 0.01563,-0.044922 0.50005,0.50005 0 0 0 0,-0.00195 0.50005,0.50005 0 0 0 0.01172,-0.046875 0.50005,0.50005 0 0 0 0,-0.00195 0.50005,0.50005 0 0 0 -0.01563,-0.2421876 0.50005,0.50005 0 0 0 0,-0.00195 0.50005,0.50005 0 0 0 -0.01758,-0.044922 0.50005,0.50005 0 0 0 0,-0.00195 0.50005,0.50005 0 0 0 -0.02148,-0.042969 0.50005,0.50005 0 0 0 -0.002,-0.00195 0.50005,0.50005 0 0 0 -0.02344,-0.041016 0.50005,0.50005 0 0 0 -0.002,-0.00195 0.50005,0.50005 0 0 0 -0.119141,-0.1210937 L 13.853516,0.64648438 A 0.50005,0.50005 0 0 0 13.494141,0.49414062 Z" />
</svg>
