<svg width="23" height="23" viewBox="0 0 23 23" fill="none" xmlns="http://www.w3.org/2000/svg">
<path fill-rule="evenodd" clip-rule="evenodd" d="M0.18457 1.42236C0.18457 1.14622 0.408428 0.922363 0.68457 0.922363H2.33741C2.9788 0.922363 3.53304 1.37042 3.66743 1.99757L3.97884 3.45081H21.3143C22.2536 3.45081 22.9619 4.30438 22.7885 5.2276L22.0261 9.28847C21.8222 10.3744 20.9296 11.1977 19.8307 11.3134L5.87639 12.7823C6.11302 13.9377 7.13208 14.7792 8.32529 14.7792H20.0001C20.2762 14.7792 20.5001 15.003 20.5001 15.2792C20.5001 15.5553 20.2762 15.7792 20.0001 15.7792H8.32529C6.58351 15.7792 5.10679 14.4984 4.86046 12.7741L4.81069 12.4257L3.08532 4.05366L2.68963 2.2071C2.65404 2.04102 2.50727 1.92236 2.33741 1.92236H0.68457C0.408428 1.92236 0.18457 1.69851 0.18457 1.42236ZM4.18818 4.45081L5.70175 11.7951L19.726 10.3189C20.3854 10.2495 20.9209 9.75552 21.0433 9.10394L21.8057 5.04307C21.8635 4.73533 21.6274 4.45081 21.3143 4.45081H4.18818ZM8.24257 17.8787C7.35918 17.8787 6.64306 18.5948 6.64306 19.4782C6.64306 20.3616 7.35918 21.0777 8.24257 21.0777C9.12596 21.0777 9.84208 20.3616 9.84208 19.4782C9.84208 18.5948 9.12596 17.8787 8.24257 17.8787ZM5.64306 19.4782C5.64306 18.0425 6.8069 16.8787 8.24257 16.8787C9.67824 16.8787 10.8421 18.0425 10.8421 19.4782C10.8421 20.9139 9.67824 22.0777 8.24257 22.0777C6.8069 22.0777 5.64306 20.9139 5.64306 19.4782ZM15.881 19.4782C15.881 18.5948 16.5971 17.8787 17.4805 17.8787C18.3639 17.8787 19.08 18.5948 19.08 19.4782C19.08 20.3616 18.3639 21.0777 17.4805 21.0777C16.5971 21.0777 15.881 20.3616 15.881 19.4782ZM17.4805 16.8787C16.0448 16.8787 14.881 18.0425 14.881 19.4782C14.881 20.9139 16.0448 22.0777 17.4805 22.0777C18.9162 22.0777 20.08 20.9139 20.08 19.4782C20.08 18.0425 18.9162 16.8787 17.4805 16.8787Z" fill="white"/>
</svg>
