<?xml version="1.0" encoding="UTF-8" standalone="no"?>
<svg
   xmlns:dc="http://purl.org/dc/elements/1.1/"
   xmlns:cc="http://creativecommons.org/ns#"
   xmlns:rdf="http://www.w3.org/1999/02/22-rdf-syntax-ns#"
   xmlns:svg="http://www.w3.org/2000/svg"
   xmlns="http://www.w3.org/2000/svg"
   xmlns:sodipodi="http://sodipodi.sourceforge.net/DTD/sodipodi-0.dtd"
   xmlns:inkscape="http://www.inkscape.org/namespaces/inkscape"
   width="23"
   height="19"
   viewBox="0 0 23 19"
   fill="none"
   version="1.1"
   id="svg4"
   sodipodi:docname="fav.svg"
   inkscape:version="0.92.3 (2405546, 2018-03-11)">
  <metadata
     id="metadata10">
    <rdf:RDF>
      <cc:Work
         rdf:about="">
        <dc:format>image/svg+xml</dc:format>
        <dc:type
           rdf:resource="http://purl.org/dc/dcmitype/StillImage" />
        <dc:title></dc:title>
      </cc:Work>
    </rdf:RDF>
  </metadata>
  <defs
     id="defs8" />
  <sodipodi:namedview
     pagecolor="#ffffff"
     bordercolor="#666666"
     borderopacity="1"
     objecttolerance="10"
     gridtolerance="10"
     guidetolerance="10"
     inkscape:pageopacity="0"
     inkscape:pageshadow="2"
     inkscape:window-width="1366"
     inkscape:window-height="705"
     id="namedview6"
     showgrid="false"
     inkscape:zoom="12.421053"
     inkscape:cx="11.5"
     inkscape:cy="9.5"
     inkscape:window-x="-8"
     inkscape:window-y="-8"
     inkscape:window-maximized="1"
     inkscape:current-layer="svg4" />
  <path
     id="path2"
     style="color:#000000;font-style:normal;font-variant:normal;font-weight:normal;font-stretch:normal;font-size:medium;line-height:normal;font-family:sans-serif;font-variant-ligatures:normal;font-variant-position:normal;font-variant-caps:normal;font-variant-numeric:normal;font-variant-alternates:normal;font-feature-settings:normal;text-indent:0;text-align:start;text-decoration:none;text-decoration-line:none;text-decoration-style:solid;text-decoration-color:#000000;letter-spacing:normal;word-spacing:normal;text-transform:none;writing-mode:lr-tb;direction:ltr;text-orientation:mixed;dominant-baseline:auto;baseline-shift:baseline;text-anchor:start;white-space:normal;shape-padding:0;clip-rule:nonzero;display:inline;overflow:visible;visibility:visible;opacity:1;isolation:auto;mix-blend-mode:normal;color-interpolation:sRGB;color-interpolation-filters:linearRGB;solid-color:#000000;solid-opacity:1;vector-effect:none;fill:#ffffff;fill-opacity:1;fill-rule:nonzero;stroke:none;stroke-width:1;stroke-linecap:butt;stroke-linejoin:miter;stroke-miterlimit:4;stroke-dasharray:none;stroke-dashoffset:0;stroke-opacity:1;color-rendering:auto;image-rendering:auto;shape-rendering:auto;text-rendering:auto;enable-background:accumulate"
     d="M 5.96875,0.1796875 C 4.220975,0.26337391 2.7137147,1.1078123 1.6171875,2.6875 0.65596536,4.0722575 0.54372834,5.7178583 0.83203125,7.203125 1.1203342,8.6883917 1.7967095,10.036822 2.5,10.957031 c 2.8424238,3.719256 8.810547,7.789063 8.810547,7.789063 l 0.291015,0.201172 0.285157,-0.207032 c 0,0 5.925704,-4.254625 8.792969,-7.771484 C 22.11497,9.2082786 23.02692,5.9575278 21.607422,3.171875 20.914321,1.8115244 19.585444,0.33789062 16.8125,0.33789062 c -1.732332,0 -3.139637,1.06463358 -4.111328,2.07421878 C 12.025154,3.1144909 11.859671,3.45548 11.628906,3.8183594 11.440034,3.484737 11.343289,3.2489684 10.867188,2.6386719 10.134492,1.6994575 9.1100449,0.64879054 7.7910156,0.3515625 7.1617416,0.20976289 6.5513417,0.15179203 5.96875,0.1796875 Z m 1.6015625,1.1464844 c 0.9078608,0.2045759 1.8402858,1.0720578 2.5078125,1.9277343 0.667527,0.8556766 1.070312,1.6503907 1.070313,1.6503907 l 0.421874,0.8339843 0.458985,-0.8125 c 0,0 0.515994,-0.9095432 1.392578,-1.8203124 0.876584,-0.9107693 2.078857,-1.7675782 3.390625,-1.7675782 2.445856,0 3.292798,1.0888731 3.904297,2.2890625 1.189901,2.3350872 0.361417,5.2710489 -0.8125,6.7109379 -2.569344,3.151444 -7.838151,7.020776 -8.314453,7.36914 C 11.112139,17.373116 5.8210924,13.655054 3.2949219,10.349609 2.6936524,9.5628883 2.067778,8.3187401 1.8144531,7.0136719 1.5611283,5.7086036 1.6671711,4.367565 2.4375,3.2578125 3.7132837,1.4198828 5.3475687,0.82530232 7.5703125,1.3261719 Z" />
</svg>
