<?xml version="1.0" encoding="UTF-8" standalone="no"?>
<svg
   xmlns:dc="http://purl.org/dc/elements/1.1/"
   xmlns:cc="http://creativecommons.org/ns#"
   xmlns:rdf="http://www.w3.org/1999/02/22-rdf-syntax-ns#"
   xmlns:svg="http://www.w3.org/2000/svg"
   xmlns="http://www.w3.org/2000/svg"
   xmlns:sodipodi="http://sodipodi.sourceforge.net/DTD/sodipodi-0.dtd"
   xmlns:inkscape="http://www.inkscape.org/namespaces/inkscape"
   width="21"
   height="21"
   viewBox="0 0 21 21"
   fill="none"
   version="1.1"
   id="svg10"
   sodipodi:docname="load.svg"
   inkscape:version="0.92.3 (2405546, 2018-03-11)">
  <metadata
     id="metadata16">
    <rdf:RDF>
      <cc:Work
         rdf:about="">
        <dc:format>image/svg+xml</dc:format>
        <dc:type
           rdf:resource="http://purl.org/dc/dcmitype/StillImage" />
        <dc:title></dc:title>
      </cc:Work>
    </rdf:RDF>
  </metadata>
  <defs
     id="defs14" />
  <sodipodi:namedview
     pagecolor="#ffffff"
     bordercolor="#666666"
     borderopacity="1"
     objecttolerance="10"
     gridtolerance="10"
     guidetolerance="10"
     inkscape:pageopacity="0"
     inkscape:pageshadow="2"
     inkscape:window-width="1440"
     inkscape:window-height="837"
     id="namedview12"
     showgrid="false"
     inkscape:zoom="11.238095"
     inkscape:cx="10.5"
     inkscape:cy="10.5"
     inkscape:window-x="-8"
     inkscape:window-y="-8"
     inkscape:window-maximized="1"
     inkscape:current-layer="svg10" />
  <path
     id="path8"
     style="color:#000000;font-style:normal;font-variant:normal;font-weight:normal;font-stretch:normal;font-size:medium;line-height:normal;font-family:sans-serif;font-variant-ligatures:normal;font-variant-position:normal;font-variant-caps:normal;font-variant-numeric:normal;font-variant-alternates:normal;font-feature-settings:normal;text-indent:0;text-align:start;text-decoration:none;text-decoration-line:none;text-decoration-style:solid;text-decoration-color:#000000;letter-spacing:normal;word-spacing:normal;text-transform:none;writing-mode:lr-tb;direction:ltr;text-orientation:mixed;dominant-baseline:auto;baseline-shift:baseline;text-anchor:start;white-space:normal;shape-padding:0;clip-rule:nonzero;display:inline;overflow:visible;visibility:visible;opacity:1;isolation:auto;mix-blend-mode:normal;color-interpolation:sRGB;color-interpolation-filters:linearRGB;solid-color:#000000;solid-opacity:1;vector-effect:none;fill:#000000;fill-opacity:1;fill-rule:nonzero;stroke:none;stroke-width:1;stroke-linecap:butt;stroke-linejoin:round;stroke-miterlimit:4;stroke-dasharray:none;stroke-dashoffset:0;stroke-opacity:1;color-rendering:auto;image-rendering:auto;shape-rendering:auto;text-rendering:auto;enable-background:accumulate"
     d="m 13.673828,15.253906 v 1 h 4.556641 v 4.259766 h 1 v -4.759766 a 0.50005,0.50005 0 0 0 -0.5,-0.5 z M 0.28125,10.115234 c 0,2.163099 0.68031016,4.270793 1.9453125,6.025391 1.2649875,1.754697 3.051275,3.066452 5.1035156,3.75 2.0522318,0.68344 4.2676039,0.704312 6.3320309,0.05859 2.064521,-0.645715 3.872928,-1.925208 5.169922,-3.65625 l -0.800781,-0.59961 c -1.171206,1.563158 -2.80369,2.717696 -4.667969,3.300782 -1.864173,0.583082 -3.8635884,0.564426 -5.7167966,-0.05273 C 5.793285,18.324154 4.181355,17.141144 3.0390625,15.556641 1.8967648,13.972238 1.28125,12.068536 1.28125,10.115234 Z M 1.7675781,0 v 4.7597656 a 0.50005,0.50005 0 0 0 0.5,0.5 h 5.0585938 v -1 H 2.7675781 V 0 Z M 10.507812,0.09570312 C 9.4393575,0.08588903 8.3701146,0.24159682 7.3378906,0.56445312 5.2734329,1.2101676 3.4649779,2.4896129 2.1679688,4.2207031 L 2.9667969,4.8203125 C 4.1380077,3.2571227 5.7724964,2.1026168 7.6367188,1.5195312 9.5009309,0.93644785 11.500342,0.95503844 13.353516,1.5722656 c 1.853178,0.6172327 3.465177,1.8003326 4.607422,3.3847656 1.142262,1.5844485 1.757812,3.4881725 1.757812,5.4414068 h 1 c 0,-2.1630667 -0.682329,-4.2707796 -1.947266,-6.0253911 C 17.506529,2.6183999 15.722143,1.3065742 13.669922,0.62304688 12.643809,0.28128447 11.576268,0.10551721 10.507812,0.09570312 Z" />
</svg>
