<?xml version="1.0" encoding="UTF-8" standalone="no"?>
<svg
   xmlns:dc="http://purl.org/dc/elements/1.1/"
   xmlns:cc="http://creativecommons.org/ns#"
   xmlns:rdf="http://www.w3.org/1999/02/22-rdf-syntax-ns#"
   xmlns:svg="http://www.w3.org/2000/svg"
   xmlns="http://www.w3.org/2000/svg"
   xmlns:sodipodi="http://sodipodi.sourceforge.net/DTD/sodipodi-0.dtd"
   xmlns:inkscape="http://www.inkscape.org/namespaces/inkscape"
   width="23"
   height="21"
   viewBox="0 0 23 21"
   fill="none"
   version="1.1"
   id="svg6"
   sodipodi:docname="user.svg"
   inkscape:version="0.92.3 (2405546, 2018-03-11)">
  <metadata
     id="metadata12">
    <rdf:RDF>
      <cc:Work
         rdf:about="">
        <dc:format>image/svg+xml</dc:format>
        <dc:type
           rdf:resource="http://purl.org/dc/dcmitype/StillImage" />
        <dc:title></dc:title>
      </cc:Work>
    </rdf:RDF>
  </metadata>
  <defs
     id="defs10" />
  <sodipodi:namedview
     pagecolor="#ffffff"
     bordercolor="#666666"
     borderopacity="1"
     objecttolerance="10"
     gridtolerance="10"
     guidetolerance="10"
     inkscape:pageopacity="0"
     inkscape:pageshadow="2"
     inkscape:window-width="1366"
     inkscape:window-height="705"
     id="namedview8"
     showgrid="false"
     inkscape:zoom="11.238095"
     inkscape:cx="11.5"
     inkscape:cy="10.5"
     inkscape:window-x="-8"
     inkscape:window-y="-8"
     inkscape:window-maximized="1"
     inkscape:current-layer="svg6" />
  <path
     id="path4"
     style="color:#000000;font-style:normal;font-variant:normal;font-weight:normal;font-stretch:normal;font-size:medium;line-height:normal;font-family:sans-serif;font-variant-ligatures:normal;font-variant-position:normal;font-variant-caps:normal;font-variant-numeric:normal;font-variant-alternates:normal;font-feature-settings:normal;text-indent:0;text-align:start;text-decoration:none;text-decoration-line:none;text-decoration-style:solid;text-decoration-color:#000000;letter-spacing:normal;word-spacing:normal;text-transform:none;writing-mode:lr-tb;direction:ltr;text-orientation:mixed;dominant-baseline:auto;baseline-shift:baseline;text-anchor:start;white-space:normal;shape-padding:0;clip-rule:nonzero;display:inline;overflow:visible;visibility:visible;opacity:1;isolation:auto;mix-blend-mode:normal;color-interpolation:sRGB;color-interpolation-filters:linearRGB;solid-color:#000000;solid-opacity:1;vector-effect:none;fill:#ffffff;fill-opacity:1;fill-rule:nonzero;stroke:none;stroke-width:1;stroke-linecap:round;stroke-linejoin:miter;stroke-miterlimit:4;stroke-dasharray:none;stroke-dashoffset:0;stroke-opacity:1;color-rendering:auto;image-rendering:auto;shape-rendering:auto;text-rendering:auto;enable-background:accumulate"
     d="m 11.730469,10.833984 c 0,0 -3.7791571,-0.202009 -6.4570315,0.869141 -1.5458539,0.618372 -2.7544672,1.684929 -3.5117187,2.476563 -0.6820296,0.713085 -0.97070318,1.666191 -0.97070318,2.601562 V 18.5 c 10e-9,1.374812 1.12521928,2.5 2.49999998,2.5 H 19.708984 c 1.374728,0 2.5,-1.125166 2.5,-2.5 v -1.689453 c 0,-0.943593 -0.239637,-1.943533 -0.960937,-2.681641 -0.33737,-0.345245 -0.777726,-0.7358 -1.337891,-1.123047 -1.549761,-1.071479 -2.677734,-1.328125 -2.677734,-1.328125 a 0.50005,0.50005 0 1 0 -0.212891,0.976563 c 0,0 0.891627,0.184708 2.322266,1.173828 0.503035,0.347753 0.894776,0.696445 1.191406,1 0.4803,0.491492 0.675781,1.206814 0.675781,1.982422 V 18.5 c 0,0.834366 -0.665727,1.5 -1.5,1.5 H 3.2910156 c -0.8343592,0 -1.5,-0.665612 -1.5,-1.5 v -1.71875 c 0,-0.732029 0.2228689,-1.418242 0.6933594,-1.910156 0.6976885,-0.729367 1.8196502,-1.704006 3.1601562,-2.240235 2.3221257,-0.92885 6.0410158,-0.798828 6.0410158,-0.798828 a 0.50005,0.50005 0 1 0 0.04492,-0.998047 z M 11.708984,0 C 8.4472202,6.0217149e-8 5.7929688,2.6542515 5.7929688,5.9160156 c -3e-7,3.2617643 2.6542513,5.9179684 5.9160152,5.9179684 3.261765,0 5.916016,-2.6562039 5.916016,-5.9179684 C 17.625,2.6542514 14.970749,-1.204343e-7 11.708984,0 Z m 0,1 c 2.721325,-10e-8 4.916016,2.1946915 4.916016,4.9160156 0,2.7213243 -2.194691,4.9179684 -4.916016,4.9179684 -2.7213238,0 -4.9160155,-2.1966442 -4.9160152,-4.9179684 C 6.7929687,3.1946916 8.9876603,1.0000001 11.708984,1 Z" />
</svg>
