<svg width="45" height="46" viewBox="0 0 45 46" fill="none" xmlns="http://www.w3.org/2000/svg">
<path d="M1 1L18.8189 19.2542M1 1V26.5348M1 1H18.8189M35.6774 41.8345H44V1H27.0347M35.6774 41.8345L36.6377 43.6283L35.1439 45H18.072L16.2581 41.8345M35.6774 41.8345L27.6749 28.3285C27.6749 28.3285 32.6677 31.1988 35.6774 30.9664C36.8823 30.8734 38.1125 30.2485 38.9784 29.7027C39.5717 29.3287 39.498 28.495 38.8826 28.1587L27.995 22.2086L20.4194 21.048L18.8189 19.2542M16.2581 41.8345H1V26.5348M16.2581 41.8345L9.43284 28.8561M18.8189 19.2542L9.43284 28.8561M1 26.5348L5.72652 31.2088C6.12082 31.5988 6.75713 31.5934 7.14477 31.1968L9.43284 28.8561M18.8189 1V10.4964L27.0347 8.70264V1M18.8189 1H27.0347" stroke="black" stroke-width="2" stroke-linejoin="round"/>
</svg>
